<?xml version="1.0" encoding="UTF-8" standalone="no"?><svg xmlns="http://www.w3.org/2000/svg" version="1.1" viewBox="0 0 480 480" ><defs><clipPath id="clip_0"><polygon points="0 0,300 0,300 300,0 300" /></clipPath></defs><g clip-path="url(#clip_0)">	<path style="fill:#FFFFFF;" d="M 0,0 L 300,0 L 300,300 L 0,300 L 0,0 Z" />	<path style="fill:#FF0000;" d="M 119,141.50 C 119,129.08 129.08,119 141.50,119 L 229.50,119 C 241.92,119 252,129.08 252,141.50 L 252,165.50 C 252,177.92 241.92,188 229.50,188 L 141.50,188 C 129.08,188 119,177.92 119,165.50 L 119,141.50 M 141.50,120 C 129.64,120 120,129.64 120,141.50 L 120,165.50 C 120,177.36 129.64,187 141.50,187 L 229.50,187 C 241.36,187 251,177.36 251,165.50 L 251,141.50 C 251,129.64 241.36,120 229.50,120 L 141.50,120 Z" />	<path style="fill:#ADDFFF;fill-opacity:0.50" d="M 141.50,123 C 131.30,123 123,131.30 123,141.50 L 123,165.50 C 123,175.70 131.30,184 141.50,184 L 229.50,184 C 239.70,184 248,175.70 248,165.50 L 248,141.50 C 248,131.30 239.70,123 229.50,123 L 141.50,123 Z" />	<path style="fill:#2B65EC;fill-opacity:0.50" d="M 120,141.50 C 120,129.64 129.64,120 141.50,120 L 229.50,120 C 241.36,120 251,129.64 251,141.50 L 251,165.50 C 251,177.36 241.36,187 229.50,187 L 141.50,187 C 129.64,187 120,177.36 120,165.50 L 120,141.50 M 141.50,123 C 131.30,123 123,131.30 123,141.50 L 123,165.50 C 123,175.70 131.30,184 141.50,184 L 229.50,184 C 239.70,184 248,175.70 248,165.50 L 248,141.50 C 248,131.30 239.70,123 229.50,123 L 141.50,123 Z" /><defs><clipPath id="clip_1"><polygon points="133 133,238 133,238 174,133 174" /></clipPath></defs><g clip-path="url(#clip_1)">	<text x="133" y="166" xml:space="preserve" style="font-size:40px;font-family:Cerial,monospace;fill:#0000A0;" >Press</text></g></g></svg>