<?xml version="1.0" encoding="UTF-8" standalone="no"?><svg xmlns="http://www.w3.org/2000/svg" version="1.1" viewBox="0 0 480 480" ><defs><clipPath id="clip_0"><polygon points="0 0,200 0,200 200,0 200" /></clipPath></defs><g clip-path="url(#clip_0)">	<path style="fill:#FFFFFF;" d="M 0,0 L 200,0 L 200,200 L 0,200 L 0,0 Z" />	<path style="fill:#CFE284;" d="M 27,43.50 C 27,34.39 34.39,27 43.50,27 L 83.50,27 C 92.61,27 100,34.39 100,43.50 L 100,51.50 C 100,60.61 92.61,68 83.50,68 L 43.50,68 C 34.39,68 27,60.61 27,51.50 L 27,43.50 M 43.50,30 C 36.05,30 30,36.05 30,43.50 L 30,51.50 C 30,58.95 36.05,65 43.50,65 L 83.50,65 C 90.95,65 97,58.95 97,51.50 L 97,43.50 C 97,36.05 90.95,30 83.50,30 L 43.50,30 Z" />	<path style="fill:#A1C60B;" d="M 43.50,31 C 36.61,31 31,36.61 31,43.50 L 31,51.50 C 31,58.39 36.61,64 43.50,64 L 83.50,64 C 90.39,64 96,58.39 96,51.50 L 96,43.50 C 96,36.61 90.39,31 83.50,31 L 43.50,31 Z" />	<path style="fill:#EEF5D5;" d="M 30,43.50 C 30,36.05 36.05,30 43.50,30 L 83.50,30 C 90.95,30 97,36.05 97,43.50 L 97,51.50 C 97,58.95 90.95,65 83.50,65 L 43.50,65 C 36.05,65 30,58.95 30,51.50 L 30,43.50 M 43.50,31 C 36.61,31 31,36.61 31,43.50 L 31,51.50 C 31,58.39 36.61,64 43.50,64 L 83.50,64 C 90.39,64 96,58.39 96,51.50 L 96,43.50 C 96,36.61 90.39,31 83.50,31 L 43.50,31 Z" /><defs><clipPath id="clip_1"><polygon points="36 36,91 36,91 59,36 59" /></clipPath></defs><g clip-path="url(#clip_1)">	<text x="36" y="55" xml:space="preserve" style="font-size:22px;font-family:Cerial,monospace;fill:#FFFFFF;" textLength="55" lengthAdjust="spacingAndGlyphs" >Press</text></g></g></svg>