<?xml version="1.0" encoding="UTF-8" standalone="no"?><svg xmlns="http://www.w3.org/2000/svg" version="1.1" viewBox="0 0 480 480" ><defs><clipPath id="clip_0"><polygon points="0 0,480 0,480 480,0 480" /></clipPath></defs><g clip-path="url(#clip_0)">	<path style="fill:#FFFFFF;" d="M 0,0 L 480,0 L 480,480 L 0,480 L 0,0 Z" />	<path style="fill:#D3D3D3;" d="M 100,50 L 450,50 L 450,100 L 100,100 L 100,50 Z" />	<path style="fill:#FF0000;" d="M 140,69 C 140,66.80 141.80,65 144,65 L 158,65 C 160.20,65 162,66.80 162,69 L 162,83 C 162,85.20 160.20,87 158,87 L 144,87 C 141.80,87 140,85.20 140,83 L 140,69 M 144,67 C 142.91,67 142,67.91 142,69 L 142,83 C 142,84.09 142.91,85 144,85 L 158,85 C 159.09,85 160,84.09 160,83 L 160,69 C 160,67.91 159.09,67 158,67 L 144,67 Z" />	<path style="fill:#ADD8E6;" d="M 144,69 L 144,83 L 158,83 L 158,69 L 144,69 Z" />	<path style="fill:#0000FF;" d="M 142,69 C 142,67.91 142.91,67 144,67 L 158,67 C 159.09,67 160,67.91 160,69 L 160,83 C 160,84.09 159.09,85 158,85 L 144,85 C 142.91,85 142,84.09 142,83 L 142,69 M 144,69 L 144,83 L 158,83 L 158,69 L 144,69 Z" /><defs><clipPath id="clip_1"><polygon points="100 67,450 67,450 84,100 84" /></clipPath></defs><g clip-path="url(#clip_1)">	<text x="164" y="84" xml:space="preserve" style="font-size:16px;font-family:Cerial,monospace;fill:#0000FF;" >Absolute position with text</text></g>	<path style="fill:#90EE90;" d="M 21,81 L 21,95 L 35,95 L 35,81 L 21,81 Z" />	<path style="fill:#008000;" d="M 19,81 C 19,79.91 19.91,79 21,79 L 35,79 C 36.09,79 37,79.91 37,81 L 37,95 C 37,96.09 36.09,97 35,97 L 21,97 C 19.91,97 19,96.09 19,95 L 19,81 M 21,81 L 21,95 L 35,95 L 35,81 L 21,81 Z" />	<path style="fill:#FFCCCB;" d="M 86,148 L 86,162 L 100,162 L 100,148 L 86,148 Z" />	<path style="fill:#FF0000;" d="M 84,148 C 84,146.91 84.91,146 86,146 L 100,146 C 101.09,146 102,146.91 102,148 L 102,162 C 102,163.09 101.09,164 100,164 L 86,164 C 84.91,164 84,163.09 84,162 L 84,148 M 86,148 L 86,162 L 100,162 L 100,148 L 86,148 Z" /><defs><clipPath id="clip_2"><polygon points="20 147,370 147,370 163,20 163" /></clipPath></defs><g clip-path="url(#clip_2)">	<text x="106" y="163" xml:space="preserve" style="font-size:14px;font-family:Cerial,monospace;fill:#FF0000;" >Another absolute checkbox</text></g></g></svg>