<?xml version="1.0" encoding="UTF-8" standalone="no"?><svg xmlns="http://www.w3.org/2000/svg" version="1.1" viewBox="0 0 480 480" ><defs><clipPath id="clip_0"><polygon points="160 0,480 0,480 480,160 480" /></clipPath></defs><g clip-path="url(#clip_0)">	<path style="fill:#FFFFFF;" d="M 160,0 L 480,0 L 480,480 L 160,480 L 160,0 Z" /><defs><clipPath id="clip_1"><polygon points="160 0,480 0,480 31,160 31" /></clipPath></defs><g clip-path="url(#clip_1)">	<text x="170" y="31" xml:space="preserve" style="font-size:20px;font-family:Berial,monospace;fill:#000000;" textLength="80" lengthAdjust="spacingAndGlyphs" >First name</text></g>	<path style="fill:#7F7F7F;" d="M 167,37.50 C 167,35.02 169.02,33 171.50,33 L 468.50,33 C 470.98,33 473,35.02 473,37.50 L 473,107.50 C 473,109.98 470.98,112 468.50,112 L 171.50,112 C 169.02,112 167,109.98 167,107.50 L 167,37.50 M 171.50,35 C 170.13,35 169,36.13 169,37.50 L 169,107.50 C 169,108.88 170.13,110 171.50,110 L 468.50,110 C 469.88,110 471,108.88 471,107.50 L 471,37.50 C 471,36.13 469.88,35 468.50,35 L 171.50,35 Z" />	<path style="fill:#F8F8F8;" d="M 171.50,36 C 170.67,36 170,36.67 170,37.50 L 170,107.50 C 170,108.33 170.67,109 171.50,109 L 468.50,109 C 469.33,109 470,108.33 470,107.50 L 470,37.50 C 470,36.67 469.33,36 468.50,36 L 171.50,36 Z" />	<path style="fill:#7F7F7F;" d="M 169,37.50 C 169,36.13 170.13,35 171.50,35 L 468.50,35 C 469.88,35 471,36.13 471,37.50 L 471,107.50 C 471,108.88 469.88,110 468.50,110 L 171.50,110 C 170.13,110 169,108.88 169,107.50 L 169,37.50 M 171.50,36 C 170.67,36 170,36.67 170,37.50 L 170,107.50 C 170,108.33 170.67,109 171.50,109 L 468.50,109 C 469.33,109 470,108.33 470,107.50 L 470,37.50 C 470,36.67 469.33,36 468.50,36 L 171.50,36 Z" /><defs><clipPath id="clip_2"><polygon points="175 41,465 41,465 104,175 104" /></clipPath></defs><g clip-path="url(#clip_2)">	<path style="fill:#5F5F5F;fill-opacity:0.18" d="M 175,41 L 399,41 L 399,62 L 175,62 L 175,41 Z" />	<text x="175" y="62" xml:space="preserve" style="font-size:20px;font-family:Berial,monospace;fill:#5F5F5F;" textLength="224" lengthAdjust="spacingAndGlyphs" >Lorem ipsum dolor sit amet, </text>	<path style="fill:#000000;" d="M 175,59 L 183,59 L 183,62 L 175,62 L 175,59 Z" />	<path style="fill:#5F5F5F;fill-opacity:0.18" d="M 175,62 L 399,62 L 399,83 L 175,83 L 175,62 Z" />	<text x="175" y="83" xml:space="preserve" style="font-size:20px;font-family:Berial,monospace;fill:#5F5F5F;" textLength="224" lengthAdjust="spacingAndGlyphs" >consectetur adipiscing elit,</text>	<path style="fill:#5F5F5F;fill-opacity:0.18" d="M 175,83 L 519,83 L 519,104 L 175,104 L 175,83 Z" />	<text x="175" y="104" xml:space="preserve" style="font-size:20px;font-family:Berial,monospace;fill:#5F5F5F;" textLength="344" lengthAdjust="spacingAndGlyphs" > sed do eiusmod tempor incididunt ut labore</text>	<path style="fill:#5F5F5F;fill-opacity:0.18" d="M 175,104 L 367,104 L 367,125 L 175,125 L 175,104 Z" />	<text x="175" y="125" xml:space="preserve" style="font-size:20px;font-family:Berial,monospace;fill:#5F5F5F;" textLength="192" lengthAdjust="spacingAndGlyphs" > et dolore magna aliqua.</text></g><defs><clipPath id="clip_3"><polygon points="160 114,480 114,480 145,160 145" /></clipPath></defs><g clip-path="url(#clip_3)">	<text x="170" y="145" xml:space="preserve" style="font-size:20px;font-family:Berial,monospace;fill:#000000;" textLength="72" lengthAdjust="spacingAndGlyphs" >Last name</text></g>	<path style="fill:#F8F8F8;" d="M 171.50,150 C 170.67,150 170,150.67 170,151.50 L 170,179.50 C 170,180.33 170.67,181 171.50,181 L 468.50,181 C 469.33,181 470,180.33 470,179.50 L 470,151.50 C 470,150.67 469.33,150 468.50,150 L 171.50,150 Z" />	<path style="fill:#7F7F7F;" d="M 169,151.50 C 169,150.13 170.13,149 171.50,149 L 468.50,149 C 469.88,149 471,150.13 471,151.50 L 471,179.50 C 471,180.88 469.88,182 468.50,182 L 171.50,182 C 170.13,182 169,180.88 169,179.50 L 169,151.50 M 171.50,150 C 170.67,150 170,150.67 170,151.50 L 170,179.50 C 170,180.33 170.67,181 171.50,181 L 468.50,181 C 469.33,181 470,180.33 470,179.50 L 470,151.50 C 470,150.67 469.33,150 468.50,150 L 171.50,150 Z" /><defs><clipPath id="clip_4"><polygon points="175 155,465 155,465 176,175 176" /></clipPath></defs><g clip-path="url(#clip_4)">	<text x="175" y="176" xml:space="preserve" style="font-size:20px;font-family:Berial,monospace;fill:#5F5F5F;" textLength="72" lengthAdjust="spacingAndGlyphs" >BERTHILOT</text></g>	<path style="fill:#1E90FF;" d="M 393.50,206 C 389.36,206 386,209.36 386,213.50 L 386,277.50 C 386,281.64 389.36,285 393.50,285 L 452.50,285 C 456.64,285 460,281.64 460,277.50 L 460,213.50 C 460,209.36 456.64,206 452.50,206 L 393.50,206 Z" />	<path style="fill:#000080;" d="M 385,213.50 C 385,208.81 388.81,205 393.50,205 L 452.50,205 C 457.19,205 461,208.81 461,213.50 L 461,277.50 C 461,282.19 457.19,286 452.50,286 L 393.50,286 C 388.81,286 385,282.19 385,277.50 L 385,213.50 M 393.50,206 C 389.36,206 386,209.36 386,213.50 L 386,277.50 C 386,281.64 389.36,285 393.50,285 L 452.50,285 C 456.64,285 460,281.64 460,277.50 L 460,213.50 C 460,209.36 456.64,206 452.50,206 L 393.50,206 Z" /><defs><clipPath id="clip_5"><polygon points="391 211,455 211,455 280,391 280" /></clipPath></defs><g clip-path="url(#clip_5)">	<text x="391" y="232" xml:space="preserve" style="font-size:20px;font-family:Berial,monospace;fill:#FFFFFF;" textLength="64" lengthAdjust="spacingAndGlyphs" >Register</text>	<text x="391" y="253" xml:space="preserve" style="font-size:20px;font-family:Berial,monospace;fill:#FFFFFF;" textLength="48" lengthAdjust="spacingAndGlyphs" >Encore</text>	<text x="391" y="274" xml:space="preserve" style="font-size:20px;font-family:Berial,monospace;fill:#FFFFFF;" textLength="24" lengthAdjust="spacingAndGlyphs" >une</text>	<text x="391" y="295" xml:space="preserve" style="font-size:20px;font-family:Berial,monospace;fill:#FFFFFF;" textLength="40" lengthAdjust="spacingAndGlyphs" >ligne</text></g><defs><clipPath id="clip_6"><polygon points="160 305,480 305,480 347,160 347" /></clipPath></defs><g clip-path="url(#clip_6)">	<text x="292" y="345" xml:space="preserve" style="font-size:36px;font-family:Berial,monospace;fill:#000000;" >eee</text></g>	<path style="fill:#E7FCFF;" d="M 169.50,350 C 165.92,350 163,352.92 163,356.50 L 163,366.50 C 163,370.08 165.92,373 169.50,373 L 182.50,373 C 186.08,373 189,370.08 189,366.50 L 189,356.50 C 189,352.92 186.08,350 182.50,350 L 169.50,350 Z" />	<path style="fill:#7ABBE8;" d="M 162,356.50 C 162,352.36 165.36,349 169.50,349 L 182.50,349 C 186.64,349 190,352.36 190,356.50 L 190,366.50 C 190,370.64 186.64,374 182.50,374 L 169.50,374 C 165.36,374 162,370.64 162,366.50 L 162,356.50 M 169.50,350 C 165.92,350 163,352.92 163,356.50 L 163,366.50 C 163,370.08 165.92,373 169.50,373 L 182.50,373 C 186.08,373 189,370.08 189,366.50 L 189,356.50 C 189,352.92 186.08,350 182.50,350 L 169.50,350 Z" /><defs><clipPath id="clip_7"><polygon points="163 350,189 350,189 373,163 373" /></clipPath></defs><g clip-path="url(#clip_7)">	<text x="169" y="380" xml:space="preserve" style="font-size:28px;font-family:Berial,monospace;fill:#0060AF;" >q</text></g>	<path style="fill:#E7FCFF;" d="M 201.50,350 C 197.92,350 195,352.92 195,356.50 L 195,366.50 C 195,370.08 197.92,373 201.50,373 L 214.50,373 C 218.08,373 221,370.08 221,366.50 L 221,356.50 C 221,352.92 218.08,350 214.50,350 L 201.50,350 Z" />	<path style="fill:#7ABBE8;" d="M 194,356.50 C 194,352.36 197.36,349 201.50,349 L 214.50,349 C 218.64,349 222,352.36 222,356.50 L 222,366.50 C 222,370.64 218.64,374 214.50,374 L 201.50,374 C 197.36,374 194,370.64 194,366.50 L 194,356.50 M 201.50,350 C 197.92,350 195,352.92 195,356.50 L 195,366.50 C 195,370.08 197.92,373 201.50,373 L 214.50,373 C 218.08,373 221,370.08 221,366.50 L 221,356.50 C 221,352.92 218.08,350 214.50,350 L 201.50,350 Z" /><defs><clipPath id="clip_8"><polygon points="195 350,221 350,221 373,195 373" /></clipPath></defs><g clip-path="url(#clip_8)">	<text x="201" y="380" xml:space="preserve" style="font-size:28px;font-family:Berial,monospace;fill:#0060AF;" >w</text></g>	<path style="fill:#E7FCFF;" d="M 233.50,350 C 229.92,350 227,352.92 227,356.50 L 227,366.50 C 227,370.08 229.92,373 233.50,373 L 246.50,373 C 250.08,373 253,370.08 253,366.50 L 253,356.50 C 253,352.92 250.08,350 246.50,350 L 233.50,350 Z" />	<path style="fill:#7ABBE8;" d="M 226,356.50 C 226,352.36 229.36,349 233.50,349 L 246.50,349 C 250.64,349 254,352.36 254,356.50 L 254,366.50 C 254,370.64 250.64,374 246.50,374 L 233.50,374 C 229.36,374 226,370.64 226,366.50 L 226,356.50 M 233.50,350 C 229.92,350 227,352.92 227,356.50 L 227,366.50 C 227,370.08 229.92,373 233.50,373 L 246.50,373 C 250.08,373 253,370.08 253,366.50 L 253,356.50 C 253,352.92 250.08,350 246.50,350 L 233.50,350 Z" /><defs><clipPath id="clip_9"><polygon points="227 350,253 350,253 373,227 373" /></clipPath></defs><g clip-path="url(#clip_9)">	<text x="233" y="380" xml:space="preserve" style="font-size:28px;font-family:Berial,monospace;fill:#0060AF;" >e</text></g>	<path style="fill:#E7FCFF;" d="M 265.50,350 C 261.92,350 259,352.92 259,356.50 L 259,366.50 C 259,370.08 261.92,373 265.50,373 L 278.50,373 C 282.08,373 285,370.08 285,366.50 L 285,356.50 C 285,352.92 282.08,350 278.50,350 L 265.50,350 Z" />	<path style="fill:#7ABBE8;" d="M 258,356.50 C 258,352.36 261.36,349 265.50,349 L 278.50,349 C 282.64,349 286,352.36 286,356.50 L 286,366.50 C 286,370.64 282.64,374 278.50,374 L 265.50,374 C 261.36,374 258,370.64 258,366.50 L 258,356.50 M 265.50,350 C 261.92,350 259,352.92 259,356.50 L 259,366.50 C 259,370.08 261.92,373 265.50,373 L 278.50,373 C 282.08,373 285,370.08 285,366.50 L 285,356.50 C 285,352.92 282.08,350 278.50,350 L 265.50,350 Z" /><defs><clipPath id="clip_10"><polygon points="259 350,285 350,285 373,259 373" /></clipPath></defs><g clip-path="url(#clip_10)">	<text x="265" y="380" xml:space="preserve" style="font-size:28px;font-family:Berial,monospace;fill:#0060AF;" >r</text></g>	<path style="fill:#E7FCFF;" d="M 297.50,350 C 293.92,350 291,352.92 291,356.50 L 291,366.50 C 291,370.08 293.92,373 297.50,373 L 310.50,373 C 314.08,373 317,370.08 317,366.50 L 317,356.50 C 317,352.92 314.08,350 310.50,350 L 297.50,350 Z" />	<path style="fill:#7ABBE8;" d="M 290,356.50 C 290,352.36 293.36,349 297.50,349 L 310.50,349 C 314.64,349 318,352.36 318,356.50 L 318,366.50 C 318,370.64 314.64,374 310.50,374 L 297.50,374 C 293.36,374 290,370.64 290,366.50 L 290,356.50 M 297.50,350 C 293.92,350 291,352.92 291,356.50 L 291,366.50 C 291,370.08 293.92,373 297.50,373 L 310.50,373 C 314.08,373 317,370.08 317,366.50 L 317,356.50 C 317,352.92 314.08,350 310.50,350 L 297.50,350 Z" /><defs><clipPath id="clip_11"><polygon points="291 350,317 350,317 373,291 373" /></clipPath></defs><g clip-path="url(#clip_11)">	<text x="297" y="380" xml:space="preserve" style="font-size:28px;font-family:Berial,monospace;fill:#0060AF;" >t</text></g>	<path style="fill:#E7FCFF;" d="M 329.50,350 C 325.92,350 323,352.92 323,356.50 L 323,366.50 C 323,370.08 325.92,373 329.50,373 L 342.50,373 C 346.08,373 349,370.08 349,366.50 L 349,356.50 C 349,352.92 346.08,350 342.50,350 L 329.50,350 Z" />	<path style="fill:#7ABBE8;" d="M 322,356.50 C 322,352.36 325.36,349 329.50,349 L 342.50,349 C 346.64,349 350,352.36 350,356.50 L 350,366.50 C 350,370.64 346.64,374 342.50,374 L 329.50,374 C 325.36,374 322,370.64 322,366.50 L 322,356.50 M 329.50,350 C 325.92,350 323,352.92 323,356.50 L 323,366.50 C 323,370.08 325.92,373 329.50,373 L 342.50,373 C 346.08,373 349,370.08 349,366.50 L 349,356.50 C 349,352.92 346.08,350 342.50,350 L 329.50,350 Z" /><defs><clipPath id="clip_12"><polygon points="323 350,349 350,349 373,323 373" /></clipPath></defs><g clip-path="url(#clip_12)">	<text x="329" y="380" xml:space="preserve" style="font-size:28px;font-family:Berial,monospace;fill:#0060AF;" >y</text></g>	<path style="fill:#E7FCFF;" d="M 361.50,350 C 357.92,350 355,352.92 355,356.50 L 355,366.50 C 355,370.08 357.92,373 361.50,373 L 374.50,373 C 378.08,373 381,370.08 381,366.50 L 381,356.50 C 381,352.92 378.08,350 374.50,350 L 361.50,350 Z" />	<path style="fill:#7ABBE8;" d="M 354,356.50 C 354,352.36 357.36,349 361.50,349 L 374.50,349 C 378.64,349 382,352.36 382,356.50 L 382,366.50 C 382,370.64 378.64,374 374.50,374 L 361.50,374 C 357.36,374 354,370.64 354,366.50 L 354,356.50 M 361.50,350 C 357.92,350 355,352.92 355,356.50 L 355,366.50 C 355,370.08 357.92,373 361.50,373 L 374.50,373 C 378.08,373 381,370.08 381,366.50 L 381,356.50 C 381,352.92 378.08,350 374.50,350 L 361.50,350 Z" /><defs><clipPath id="clip_13"><polygon points="355 350,381 350,381 373,355 373" /></clipPath></defs><g clip-path="url(#clip_13)">	<text x="361" y="380" xml:space="preserve" style="font-size:28px;font-family:Berial,monospace;fill:#0060AF;" >u</text></g>	<path style="fill:#E7FCFF;" d="M 393.50,350 C 389.92,350 387,352.92 387,356.50 L 387,366.50 C 387,370.08 389.92,373 393.50,373 L 406.50,373 C 410.08,373 413,370.08 413,366.50 L 413,356.50 C 413,352.92 410.08,350 406.50,350 L 393.50,350 Z" />	<path style="fill:#7ABBE8;" d="M 386,356.50 C 386,352.36 389.36,349 393.50,349 L 406.50,349 C 410.64,349 414,352.36 414,356.50 L 414,366.50 C 414,370.64 410.64,374 406.50,374 L 393.50,374 C 389.36,374 386,370.64 386,366.50 L 386,356.50 M 393.50,350 C 389.92,350 387,352.92 387,356.50 L 387,366.50 C 387,370.08 389.92,373 393.50,373 L 406.50,373 C 410.08,373 413,370.08 413,366.50 L 413,356.50 C 413,352.92 410.08,350 406.50,350 L 393.50,350 Z" /><defs><clipPath id="clip_14"><polygon points="387 350,413 350,413 373,387 373" /></clipPath></defs><g clip-path="url(#clip_14)">	<text x="393" y="380" xml:space="preserve" style="font-size:28px;font-family:Berial,monospace;fill:#0060AF;" >i</text></g>	<path style="fill:#E7FCFF;" d="M 425.50,350 C 421.92,350 419,352.92 419,356.50 L 419,366.50 C 419,370.08 421.92,373 425.50,373 L 438.50,373 C 442.08,373 445,370.08 445,366.50 L 445,356.50 C 445,352.92 442.08,350 438.50,350 L 425.50,350 Z" />	<path style="fill:#7ABBE8;" d="M 418,356.50 C 418,352.36 421.36,349 425.50,349 L 438.50,349 C 442.64,349 446,352.36 446,356.50 L 446,366.50 C 446,370.64 442.64,374 438.50,374 L 425.50,374 C 421.36,374 418,370.64 418,366.50 L 418,356.50 M 425.50,350 C 421.92,350 419,352.92 419,356.50 L 419,366.50 C 419,370.08 421.92,373 425.50,373 L 438.50,373 C 442.08,373 445,370.08 445,366.50 L 445,356.50 C 445,352.92 442.08,350 438.50,350 L 425.50,350 Z" /><defs><clipPath id="clip_15"><polygon points="419 350,445 350,445 373,419 373" /></clipPath></defs><g clip-path="url(#clip_15)">	<text x="425" y="380" xml:space="preserve" style="font-size:28px;font-family:Berial,monospace;fill:#0060AF;" >o</text></g>	<path style="fill:#E7FCFF;" d="M 457.50,350 C 453.92,350 451,352.92 451,356.50 L 451,366.50 C 451,370.08 453.92,373 457.50,373 L 470.50,373 C 474.08,373 477,370.08 477,366.50 L 477,356.50 C 477,352.92 474.08,350 470.50,350 L 457.50,350 Z" />	<path style="fill:#7ABBE8;" d="M 450,356.50 C 450,352.36 453.36,349 457.50,349 L 470.50,349 C 474.64,349 478,352.36 478,356.50 L 478,366.50 C 478,370.64 474.64,374 470.50,374 L 457.50,374 C 453.36,374 450,370.64 450,366.50 L 450,356.50 M 457.50,350 C 453.92,350 451,352.92 451,356.50 L 451,366.50 C 451,370.08 453.92,373 457.50,373 L 470.50,373 C 474.08,373 477,370.08 477,366.50 L 477,356.50 C 477,352.92 474.08,350 470.50,350 L 457.50,350 Z" /><defs><clipPath id="clip_16"><polygon points="451 350,477 350,477 373,451 373" /></clipPath></defs><g clip-path="url(#clip_16)">	<text x="457" y="380" xml:space="preserve" style="font-size:28px;font-family:Berial,monospace;fill:#0060AF;" >p</text></g>	<path style="fill:#E7FCFF;" d="M 169.50,379 C 165.92,379 163,381.92 163,385.50 L 163,396.50 C 163,400.08 165.92,403 169.50,403 L 182.50,403 C 186.08,403 189,400.08 189,396.50 L 189,385.50 C 189,381.92 186.08,379 182.50,379 L 169.50,379 Z" />	<path style="fill:#7ABBE8;" d="M 162,385.50 C 162,381.36 165.36,378 169.50,378 L 182.50,378 C 186.64,378 190,381.36 190,385.50 L 190,396.50 C 190,400.64 186.64,404 182.50,404 L 169.50,404 C 165.36,404 162,400.64 162,396.50 L 162,385.50 M 169.50,379 C 165.92,379 163,381.92 163,385.50 L 163,396.50 C 163,400.08 165.92,403 169.50,403 L 182.50,403 C 186.08,403 189,400.08 189,396.50 L 189,385.50 C 189,381.92 186.08,379 182.50,379 L 169.50,379 Z" /><defs><clipPath id="clip_17"><polygon points="163 379,189 379,189 403,163 403" /></clipPath></defs><g clip-path="url(#clip_17)">	<text x="169" y="409" xml:space="preserve" style="font-size:28px;font-family:Berial,monospace;fill:#0060AF;" >a</text></g>	<path style="fill:#E7FCFF;" d="M 201.50,379 C 197.92,379 195,381.92 195,385.50 L 195,396.50 C 195,400.08 197.92,403 201.50,403 L 214.50,403 C 218.08,403 221,400.08 221,396.50 L 221,385.50 C 221,381.92 218.08,379 214.50,379 L 201.50,379 Z" />	<path style="fill:#7ABBE8;" d="M 194,385.50 C 194,381.36 197.36,378 201.50,378 L 214.50,378 C 218.64,378 222,381.36 222,385.50 L 222,396.50 C 222,400.64 218.64,404 214.50,404 L 201.50,404 C 197.36,404 194,400.64 194,396.50 L 194,385.50 M 201.50,379 C 197.92,379 195,381.92 195,385.50 L 195,396.50 C 195,400.08 197.92,403 201.50,403 L 214.50,403 C 218.08,403 221,400.08 221,396.50 L 221,385.50 C 221,381.92 218.08,379 214.50,379 L 201.50,379 Z" /><defs><clipPath id="clip_18"><polygon points="195 379,221 379,221 403,195 403" /></clipPath></defs><g clip-path="url(#clip_18)">	<text x="201" y="409" xml:space="preserve" style="font-size:28px;font-family:Berial,monospace;fill:#0060AF;" >s</text></g>	<path style="fill:#E7FCFF;" d="M 233.50,379 C 229.92,379 227,381.92 227,385.50 L 227,396.50 C 227,400.08 229.92,403 233.50,403 L 246.50,403 C 250.08,403 253,400.08 253,396.50 L 253,385.50 C 253,381.92 250.08,379 246.50,379 L 233.50,379 Z" />	<path style="fill:#7ABBE8;" d="M 226,385.50 C 226,381.36 229.36,378 233.50,378 L 246.50,378 C 250.64,378 254,381.36 254,385.50 L 254,396.50 C 254,400.64 250.64,404 246.50,404 L 233.50,404 C 229.36,404 226,400.64 226,396.50 L 226,385.50 M 233.50,379 C 229.92,379 227,381.92 227,385.50 L 227,396.50 C 227,400.08 229.92,403 233.50,403 L 246.50,403 C 250.08,403 253,400.08 253,396.50 L 253,385.50 C 253,381.92 250.08,379 246.50,379 L 233.50,379 Z" /><defs><clipPath id="clip_19"><polygon points="227 379,253 379,253 403,227 403" /></clipPath></defs><g clip-path="url(#clip_19)">	<text x="233" y="409" xml:space="preserve" style="font-size:28px;font-family:Berial,monospace;fill:#0060AF;" >d</text></g>	<path style="fill:#E7FCFF;" d="M 265.50,379 C 261.92,379 259,381.92 259,385.50 L 259,396.50 C 259,400.08 261.92,403 265.50,403 L 278.50,403 C 282.08,403 285,400.08 285,396.50 L 285,385.50 C 285,381.92 282.08,379 278.50,379 L 265.50,379 Z" />	<path style="fill:#7ABBE8;" d="M 258,385.50 C 258,381.36 261.36,378 265.50,378 L 278.50,378 C 282.64,378 286,381.36 286,385.50 L 286,396.50 C 286,400.64 282.64,404 278.50,404 L 265.50,404 C 261.36,404 258,400.64 258,396.50 L 258,385.50 M 265.50,379 C 261.92,379 259,381.92 259,385.50 L 259,396.50 C 259,400.08 261.92,403 265.50,403 L 278.50,403 C 282.08,403 285,400.08 285,396.50 L 285,385.50 C 285,381.92 282.08,379 278.50,379 L 265.50,379 Z" /><defs><clipPath id="clip_20"><polygon points="259 379,285 379,285 403,259 403" /></clipPath></defs><g clip-path="url(#clip_20)">	<text x="265" y="409" xml:space="preserve" style="font-size:28px;font-family:Berial,monospace;fill:#0060AF;" >f</text></g>	<path style="fill:#E7FCFF;" d="M 297.50,379 C 293.92,379 291,381.92 291,385.50 L 291,396.50 C 291,400.08 293.92,403 297.50,403 L 310.50,403 C 314.08,403 317,400.08 317,396.50 L 317,385.50 C 317,381.92 314.08,379 310.50,379 L 297.50,379 Z" />	<path style="fill:#7ABBE8;" d="M 290,385.50 C 290,381.36 293.36,378 297.50,378 L 310.50,378 C 314.64,378 318,381.36 318,385.50 L 318,396.50 C 318,400.64 314.64,404 310.50,404 L 297.50,404 C 293.36,404 290,400.64 290,396.50 L 290,385.50 M 297.50,379 C 293.92,379 291,381.92 291,385.50 L 291,396.50 C 291,400.08 293.92,403 297.50,403 L 310.50,403 C 314.08,403 317,400.08 317,396.50 L 317,385.50 C 317,381.92 314.08,379 310.50,379 L 297.50,379 Z" /><defs><clipPath id="clip_21"><polygon points="291 379,317 379,317 403,291 403" /></clipPath></defs><g clip-path="url(#clip_21)">	<text x="297" y="409" xml:space="preserve" style="font-size:28px;font-family:Berial,monospace;fill:#0060AF;" >g</text></g>	<path style="fill:#E7FCFF;" d="M 329.50,379 C 325.92,379 323,381.92 323,385.50 L 323,396.50 C 323,400.08 325.92,403 329.50,403 L 342.50,403 C 346.08,403 349,400.08 349,396.50 L 349,385.50 C 349,381.92 346.08,379 342.50,379 L 329.50,379 Z" />	<path style="fill:#7ABBE8;" d="M 322,385.50 C 322,381.36 325.36,378 329.50,378 L 342.50,378 C 346.64,378 350,381.36 350,385.50 L 350,396.50 C 350,400.64 346.64,404 342.50,404 L 329.50,404 C 325.36,404 322,400.64 322,396.50 L 322,385.50 M 329.50,379 C 325.92,379 323,381.92 323,385.50 L 323,396.50 C 323,400.08 325.92,403 329.50,403 L 342.50,403 C 346.08,403 349,400.08 349,396.50 L 349,385.50 C 349,381.92 346.08,379 342.50,379 L 329.50,379 Z" /><defs><clipPath id="clip_22"><polygon points="323 379,349 379,349 403,323 403" /></clipPath></defs><g clip-path="url(#clip_22)">	<text x="329" y="409" xml:space="preserve" style="font-size:28px;font-family:Berial,monospace;fill:#0060AF;" >h</text></g>	<path style="fill:#E7FCFF;" d="M 361.50,379 C 357.92,379 355,381.92 355,385.50 L 355,396.50 C 355,400.08 357.92,403 361.50,403 L 374.50,403 C 378.08,403 381,400.08 381,396.50 L 381,385.50 C 381,381.92 378.08,379 374.50,379 L 361.50,379 Z" />	<path style="fill:#7ABBE8;" d="M 354,385.50 C 354,381.36 357.36,378 361.50,378 L 374.50,378 C 378.64,378 382,381.36 382,385.50 L 382,396.50 C 382,400.64 378.64,404 374.50,404 L 361.50,404 C 357.36,404 354,400.64 354,396.50 L 354,385.50 M 361.50,379 C 357.92,379 355,381.92 355,385.50 L 355,396.50 C 355,400.08 357.92,403 361.50,403 L 374.50,403 C 378.08,403 381,400.08 381,396.50 L 381,385.50 C 381,381.92 378.08,379 374.50,379 L 361.50,379 Z" /><defs><clipPath id="clip_23"><polygon points="355 379,381 379,381 403,355 403" /></clipPath></defs><g clip-path="url(#clip_23)">	<text x="361" y="409" xml:space="preserve" style="font-size:28px;font-family:Berial,monospace;fill:#0060AF;" >j</text></g>	<path style="fill:#E7FCFF;" d="M 393.50,379 C 389.92,379 387,381.92 387,385.50 L 387,396.50 C 387,400.08 389.92,403 393.50,403 L 406.50,403 C 410.08,403 413,400.08 413,396.50 L 413,385.50 C 413,381.92 410.08,379 406.50,379 L 393.50,379 Z" />	<path style="fill:#7ABBE8;" d="M 386,385.50 C 386,381.36 389.36,378 393.50,378 L 406.50,378 C 410.64,378 414,381.36 414,385.50 L 414,396.50 C 414,400.64 410.64,404 406.50,404 L 393.50,404 C 389.36,404 386,400.64 386,396.50 L 386,385.50 M 393.50,379 C 389.92,379 387,381.92 387,385.50 L 387,396.50 C 387,400.08 389.92,403 393.50,403 L 406.50,403 C 410.08,403 413,400.08 413,396.50 L 413,385.50 C 413,381.92 410.08,379 406.50,379 L 393.50,379 Z" /><defs><clipPath id="clip_24"><polygon points="387 379,413 379,413 403,387 403" /></clipPath></defs><g clip-path="url(#clip_24)">	<text x="393" y="409" xml:space="preserve" style="font-size:28px;font-family:Berial,monospace;fill:#0060AF;" >k</text></g>	<path style="fill:#E7FCFF;" d="M 425.50,379 C 421.92,379 419,381.92 419,385.50 L 419,396.50 C 419,400.08 421.92,403 425.50,403 L 438.50,403 C 442.08,403 445,400.08 445,396.50 L 445,385.50 C 445,381.92 442.08,379 438.50,379 L 425.50,379 Z" />	<path style="fill:#7ABBE8;" d="M 418,385.50 C 418,381.36 421.36,378 425.50,378 L 438.50,378 C 442.64,378 446,381.36 446,385.50 L 446,396.50 C 446,400.64 442.64,404 438.50,404 L 425.50,404 C 421.36,404 418,400.64 418,396.50 L 418,385.50 M 425.50,379 C 421.92,379 419,381.92 419,385.50 L 419,396.50 C 419,400.08 421.92,403 425.50,403 L 438.50,403 C 442.08,403 445,400.08 445,396.50 L 445,385.50 C 445,381.92 442.08,379 438.50,379 L 425.50,379 Z" /><defs><clipPath id="clip_25"><polygon points="419 379,445 379,445 403,419 403" /></clipPath></defs><g clip-path="url(#clip_25)">	<text x="425" y="409" xml:space="preserve" style="font-size:28px;font-family:Berial,monospace;fill:#0060AF;" >l</text></g>	<path style="fill:#E7FCFF;" d="M 457.50,379 C 453.92,379 451,381.92 451,385.50 L 451,396.50 C 451,400.08 453.92,403 457.50,403 L 470.50,403 C 474.08,403 477,400.08 477,396.50 L 477,385.50 C 477,381.92 474.08,379 470.50,379 L 457.50,379 Z" />	<path style="fill:#7ABBE8;" d="M 450,385.50 C 450,381.36 453.36,378 457.50,378 L 470.50,378 C 474.64,378 478,381.36 478,385.50 L 478,396.50 C 478,400.64 474.64,404 470.50,404 L 457.50,404 C 453.36,404 450,400.64 450,396.50 L 450,385.50 M 457.50,379 C 453.92,379 451,381.92 451,385.50 L 451,396.50 C 451,400.08 453.92,403 457.50,403 L 470.50,403 C 474.08,403 477,400.08 477,396.50 L 477,385.50 C 477,381.92 474.08,379 470.50,379 L 457.50,379 Z" /><defs><clipPath id="clip_26"><polygon points="451 379,477 379,477 403,451 403" /></clipPath></defs><g clip-path="url(#clip_26)">	<text x="457" y="409" xml:space="preserve" style="font-size:28px;font-family:Berial,monospace;fill:#0060AF;" >'</text></g>	<path style="fill:#E7E7E7;" d="M 169.50,409 C 165.92,409 163,411.92 163,415.50 L 163,426.50 C 163,430.08 165.92,433 169.50,433 L 201.50,433 C 205.08,433 208,430.08 208,426.50 L 208,415.50 C 208,411.92 205.08,409 201.50,409 L 169.50,409 Z" />	<path style="fill:#838383;" d="M 162,415.50 C 162,411.36 165.36,408 169.50,408 L 201.50,408 C 205.64,408 209,411.36 209,415.50 L 209,426.50 C 209,430.64 205.64,434 201.50,434 L 169.50,434 C 165.36,434 162,430.64 162,426.50 L 162,415.50 M 169.50,409 C 165.92,409 163,411.92 163,415.50 L 163,426.50 C 163,430.08 165.92,433 169.50,433 L 201.50,433 C 205.08,433 208,430.08 208,426.50 L 208,415.50 C 208,411.92 205.08,409 201.50,409 L 169.50,409 Z" /><defs><clipPath id="clip_27"><polygon points="163 409,208 409,208 433,163 433" /></clipPath></defs><g clip-path="url(#clip_27)">	<text x="163" y="439" xml:space="preserve" style="font-size:28px;font-family:Berial,monospace;fill:#4A4A4A;" > ⬆ </text></g><defs><clipPath id="clip_28"><polygon points="211 406,219 406,219 436,211 436" /></clipPath></defs><g clip-path="url(#clip_28)">	<text x="213" y="425" xml:space="preserve" style="font-size:7px;font-family:Berial,monospace;fill:#000000;" > </text></g>	<path style="fill:#E7FCFF;" d="M 228.50,409 C 224.92,409 222,411.92 222,415.50 L 222,426.50 C 222,430.08 224.92,433 228.50,433 L 237.50,433 C 241.08,433 244,430.08 244,426.50 L 244,415.50 C 244,411.92 241.08,409 237.50,409 L 228.50,409 Z" />	<path style="fill:#7ABBE8;" d="M 221,415.50 C 221,411.36 224.36,408 228.50,408 L 237.50,408 C 241.64,408 245,411.36 245,415.50 L 245,426.50 C 245,430.64 241.64,434 237.50,434 L 228.50,434 C 224.36,434 221,430.64 221,426.50 L 221,415.50 M 228.50,409 C 224.92,409 222,411.92 222,415.50 L 222,426.50 C 222,430.08 224.92,433 228.50,433 L 237.50,433 C 241.08,433 244,430.08 244,426.50 L 244,415.50 C 244,411.92 241.08,409 237.50,409 L 228.50,409 Z" /><defs><clipPath id="clip_29"><polygon points="222 409,244 409,244 433,222 433" /></clipPath></defs><g clip-path="url(#clip_29)">	<text x="226" y="439" xml:space="preserve" style="font-size:28px;font-family:Berial,monospace;fill:#0060AF;" >z</text></g>	<path style="fill:#E7FCFF;" d="M 256.50,409 C 252.92,409 250,411.92 250,415.50 L 250,426.50 C 250,430.08 252.92,433 256.50,433 L 266.50,433 C 270.08,433 273,430.08 273,426.50 L 273,415.50 C 273,411.92 270.08,409 266.50,409 L 256.50,409 Z" />	<path style="fill:#7ABBE8;" d="M 249,415.50 C 249,411.36 252.36,408 256.50,408 L 266.50,408 C 270.64,408 274,411.36 274,415.50 L 274,426.50 C 274,430.64 270.64,434 266.50,434 L 256.50,434 C 252.36,434 249,430.64 249,426.50 L 249,415.50 M 256.50,409 C 252.92,409 250,411.92 250,415.50 L 250,426.50 C 250,430.08 252.92,433 256.50,433 L 266.50,433 C 270.08,433 273,430.08 273,426.50 L 273,415.50 C 273,411.92 270.08,409 266.50,409 L 256.50,409 Z" /><defs><clipPath id="clip_30"><polygon points="250 409,273 409,273 433,250 433" /></clipPath></defs><g clip-path="url(#clip_30)">	<text x="254" y="439" xml:space="preserve" style="font-size:28px;font-family:Berial,monospace;fill:#0060AF;" >x</text></g>	<path style="fill:#E7FCFF;" d="M 285.50,409 C 281.92,409 279,411.92 279,415.50 L 279,426.50 C 279,430.08 281.92,433 285.50,433 L 295.50,433 C 299.08,433 302,430.08 302,426.50 L 302,415.50 C 302,411.92 299.08,409 295.50,409 L 285.50,409 Z" />	<path style="fill:#7ABBE8;" d="M 278,415.50 C 278,411.36 281.36,408 285.50,408 L 295.50,408 C 299.64,408 303,411.36 303,415.50 L 303,426.50 C 303,430.64 299.64,434 295.50,434 L 285.50,434 C 281.36,434 278,430.64 278,426.50 L 278,415.50 M 285.50,409 C 281.92,409 279,411.92 279,415.50 L 279,426.50 C 279,430.08 281.92,433 285.50,433 L 295.50,433 C 299.08,433 302,430.08 302,426.50 L 302,415.50 C 302,411.92 299.08,409 295.50,409 L 285.50,409 Z" /><defs><clipPath id="clip_31"><polygon points="279 409,302 409,302 433,279 433" /></clipPath></defs><g clip-path="url(#clip_31)">	<text x="283" y="439" xml:space="preserve" style="font-size:28px;font-family:Berial,monospace;fill:#0060AF;" >c</text></g>	<path style="fill:#E7FCFF;" d="M 314.50,409 C 310.92,409 308,411.92 308,415.50 L 308,426.50 C 308,430.08 310.92,433 314.50,433 L 324.50,433 C 328.08,433 331,430.08 331,426.50 L 331,415.50 C 331,411.92 328.08,409 324.50,409 L 314.50,409 Z" />	<path style="fill:#7ABBE8;" d="M 307,415.50 C 307,411.36 310.36,408 314.50,408 L 324.50,408 C 328.64,408 332,411.36 332,415.50 L 332,426.50 C 332,430.64 328.64,434 324.50,434 L 314.50,434 C 310.36,434 307,430.64 307,426.50 L 307,415.50 M 314.50,409 C 310.92,409 308,411.92 308,415.50 L 308,426.50 C 308,430.08 310.92,433 314.50,433 L 324.50,433 C 328.08,433 331,430.08 331,426.50 L 331,415.50 C 331,411.92 328.08,409 324.50,409 L 314.50,409 Z" /><defs><clipPath id="clip_32"><polygon points="308 409,331 409,331 433,308 433" /></clipPath></defs><g clip-path="url(#clip_32)">	<text x="312" y="439" xml:space="preserve" style="font-size:28px;font-family:Berial,monospace;fill:#0060AF;" >v</text></g>	<path style="fill:#E7FCFF;" d="M 343.50,409 C 339.92,409 337,411.92 337,415.50 L 337,426.50 C 337,430.08 339.92,433 343.50,433 L 353.50,433 C 357.08,433 360,430.08 360,426.50 L 360,415.50 C 360,411.92 357.08,409 353.50,409 L 343.50,409 Z" />	<path style="fill:#7ABBE8;" d="M 336,415.50 C 336,411.36 339.36,408 343.50,408 L 353.50,408 C 357.64,408 361,411.36 361,415.50 L 361,426.50 C 361,430.64 357.64,434 353.50,434 L 343.50,434 C 339.36,434 336,430.64 336,426.50 L 336,415.50 M 343.50,409 C 339.92,409 337,411.92 337,415.50 L 337,426.50 C 337,430.08 339.92,433 343.50,433 L 353.50,433 C 357.08,433 360,430.08 360,426.50 L 360,415.50 C 360,411.92 357.08,409 353.50,409 L 343.50,409 Z" /><defs><clipPath id="clip_33"><polygon points="337 409,360 409,360 433,337 433" /></clipPath></defs><g clip-path="url(#clip_33)">	<text x="341" y="439" xml:space="preserve" style="font-size:28px;font-family:Berial,monospace;fill:#0060AF;" >b</text></g>	<path style="fill:#E7FCFF;" d="M 372.50,409 C 368.92,409 366,411.92 366,415.50 L 366,426.50 C 366,430.08 368.92,433 372.50,433 L 382.50,433 C 386.08,433 389,430.08 389,426.50 L 389,415.50 C 389,411.92 386.08,409 382.50,409 L 372.50,409 Z" />	<path style="fill:#7ABBE8;" d="M 365,415.50 C 365,411.36 368.36,408 372.50,408 L 382.50,408 C 386.64,408 390,411.36 390,415.50 L 390,426.50 C 390,430.64 386.64,434 382.50,434 L 372.50,434 C 368.36,434 365,430.64 365,426.50 L 365,415.50 M 372.50,409 C 368.92,409 366,411.92 366,415.50 L 366,426.50 C 366,430.08 368.92,433 372.50,433 L 382.50,433 C 386.08,433 389,430.08 389,426.50 L 389,415.50 C 389,411.92 386.08,409 382.50,409 L 372.50,409 Z" /><defs><clipPath id="clip_34"><polygon points="366 409,389 409,389 433,366 433" /></clipPath></defs><g clip-path="url(#clip_34)">	<text x="370" y="439" xml:space="preserve" style="font-size:28px;font-family:Berial,monospace;fill:#0060AF;" >n</text></g>	<path style="fill:#E7FCFF;" d="M 401.50,409 C 397.92,409 395,411.92 395,415.50 L 395,426.50 C 395,430.08 397.92,433 401.50,433 L 410.50,433 C 414.08,433 417,430.08 417,426.50 L 417,415.50 C 417,411.92 414.08,409 410.50,409 L 401.50,409 Z" />	<path style="fill:#7ABBE8;" d="M 394,415.50 C 394,411.36 397.36,408 401.50,408 L 410.50,408 C 414.64,408 418,411.36 418,415.50 L 418,426.50 C 418,430.64 414.64,434 410.50,434 L 401.50,434 C 397.36,434 394,430.64 394,426.50 L 394,415.50 M 401.50,409 C 397.92,409 395,411.92 395,415.50 L 395,426.50 C 395,430.08 397.92,433 401.50,433 L 410.50,433 C 414.08,433 417,430.08 417,426.50 L 417,415.50 C 417,411.92 414.08,409 410.50,409 L 401.50,409 Z" /><defs><clipPath id="clip_35"><polygon points="395 409,417 409,417 433,395 433" /></clipPath></defs><g clip-path="url(#clip_35)">	<text x="399" y="439" xml:space="preserve" style="font-size:28px;font-family:Berial,monospace;fill:#0060AF;" >m</text></g><defs><clipPath id="clip_36"><polygon points="420 406,428 406,428 436,420 436" /></clipPath></defs><g clip-path="url(#clip_36)">	<text x="422" y="425" xml:space="preserve" style="font-size:7px;font-family:Berial,monospace;fill:#000000;" > </text></g>	<path style="fill:#E7E7E7;" d="M 437.50,409 C 433.92,409 431,411.92 431,415.50 L 431,426.50 C 431,430.08 433.92,433 437.50,433 L 469.50,433 C 473.08,433 476,430.08 476,426.50 L 476,415.50 C 476,411.92 473.08,409 469.50,409 L 437.50,409 Z" />	<path style="fill:#838383;" d="M 430,415.50 C 430,411.36 433.36,408 437.50,408 L 469.50,408 C 473.64,408 477,411.36 477,415.50 L 477,426.50 C 477,430.64 473.64,434 469.50,434 L 437.50,434 C 433.36,434 430,430.64 430,426.50 L 430,415.50 M 437.50,409 C 433.92,409 431,411.92 431,415.50 L 431,426.50 C 431,430.08 433.92,433 437.50,433 L 469.50,433 C 473.08,433 476,430.08 476,426.50 L 476,415.50 C 476,411.92 473.08,409 469.50,409 L 437.50,409 Z" /><defs><clipPath id="clip_37"><polygon points="431 409,476 409,476 433,431 433" /></clipPath></defs><g clip-path="url(#clip_37)">	<text x="431" y="439" xml:space="preserve" style="font-size:28px;font-family:Berial,monospace;fill:#4A4A4A;" > ⌫ </text></g>	<path style="fill:#E7E7E7;" d="M 169.50,439 C 165.92,439 163,441.92 163,445.50 L 163,455.50 C 163,459.08 165.92,462 169.50,462 L 219.50,462 C 223.08,462 226,459.08 226,455.50 L 226,445.50 C 226,441.92 223.08,439 219.50,439 L 169.50,439 Z" />	<path style="fill:#838383;" d="M 162,445.50 C 162,441.36 165.36,438 169.50,438 L 219.50,438 C 223.64,438 227,441.36 227,445.50 L 227,455.50 C 227,459.64 223.64,463 219.50,463 L 169.50,463 C 165.36,463 162,459.64 162,455.50 L 162,445.50 M 169.50,439 C 165.92,439 163,441.92 163,445.50 L 163,455.50 C 163,459.08 165.92,462 169.50,462 L 219.50,462 C 223.08,462 226,459.08 226,455.50 L 226,445.50 C 226,441.92 223.08,439 219.50,439 L 169.50,439 Z" /><defs><clipPath id="clip_38"><polygon points="163 439,226 439,226 462,163 462" /></clipPath></defs><g clip-path="url(#clip_38)">	<text x="163" y="459" xml:space="preserve" style="font-size:16px;font-family:Berial,monospace;fill:#4A4A4A;" >  123  </text></g><defs><clipPath id="clip_39"><polygon points="229 436,237 436,237 465,229 465" /></clipPath></defs><g clip-path="url(#clip_39)">	<text x="231" y="455" xml:space="preserve" style="font-size:7px;font-family:Berial,monospace;fill:#000000;" > </text></g>	<path style="fill:#E7E7E7;" d="M 246.50,439 C 242.92,439 240,441.92 240,445.50 L 240,455.50 C 240,459.08 242.92,462 246.50,462 L 380.50,462 C 384.08,462 387,459.08 387,455.50 L 387,445.50 C 387,441.92 384.08,439 380.50,439 L 246.50,439 Z" />	<path style="fill:#838383;" d="M 239,445.50 C 239,441.36 242.36,438 246.50,438 L 380.50,438 C 384.64,438 388,441.36 388,445.50 L 388,455.50 C 388,459.64 384.64,463 380.50,463 L 246.50,463 C 242.36,463 239,459.64 239,455.50 L 239,445.50 M 246.50,439 C 242.92,439 240,441.92 240,445.50 L 240,455.50 C 240,459.08 242.92,462 246.50,462 L 380.50,462 C 384.08,462 387,459.08 387,455.50 L 387,445.50 C 387,441.92 384.08,439 380.50,439 L 246.50,439 Z" /><defs><clipPath id="clip_40"><polygon points="240 439,387 439,387 462,240 462" /></clipPath></defs><g clip-path="url(#clip_40)">	<text x="306" y="469" xml:space="preserve" style="font-size:28px;font-family:Berial,monospace;fill:#4A4A4A;" > </text></g><defs><clipPath id="clip_41"><polygon points="390 436,398 436,398 465,390 465" /></clipPath></defs><g clip-path="url(#clip_41)">	<text x="392" y="455" xml:space="preserve" style="font-size:7px;font-family:Berial,monospace;fill:#000000;" > </text></g>	<path style="fill:#E7E7E7;" d="M 407.50,439 C 403.92,439 401,441.92 401,445.50 L 401,455.50 C 401,459.08 403.92,462 407.50,462 L 469.50,462 C 473.08,462 476,459.08 476,455.50 L 476,445.50 C 476,441.92 473.08,439 469.50,439 L 407.50,439 Z" />	<path style="fill:#838383;" d="M 400,445.50 C 400,441.36 403.36,438 407.50,438 L 469.50,438 C 473.64,438 477,441.36 477,445.50 L 477,455.50 C 477,459.64 473.64,463 469.50,463 L 407.50,463 C 403.36,463 400,459.64 400,455.50 L 400,445.50 M 407.50,439 C 403.92,439 401,441.92 401,445.50 L 401,455.50 C 401,459.08 403.92,462 407.50,462 L 469.50,462 C 473.08,462 476,459.08 476,455.50 L 476,445.50 C 476,441.92 473.08,439 469.50,439 L 407.50,439 Z" /><defs><clipPath id="clip_42"><polygon points="401 439,476 439,476 462,401 462" /></clipPath></defs><g clip-path="url(#clip_42)">	<text x="401" y="469" xml:space="preserve" style="font-size:28px;font-family:Berial,monospace;fill:#4A4A4A;" >  ↩  </text></g></g></svg>