<?xml version="1.0" encoding="UTF-8" standalone="no"?><svg xmlns="http://www.w3.org/2000/svg" version="1.1" viewBox="0 0 480 480" ><defs><clipPath id="clip_0"><polygon points="0 0,480 0,480 480,0 480" /></clipPath></defs><g clip-path="url(#clip_0)">	<path style="fill:#FFFFFF;" d="M 0,0 L 480,0 L 480,480 L 0,480 L 0,0 Z" /><defs><clipPath id="clip_1"><polygon points="20 20,460 20,460 460,20 460" /></clipPath></defs><g clip-path="url(#clip_1)">	<path style="fill:#F5FFFA;" d="M 20,20 L 460,20 L 460,460 L 20,460 L 20,20 Z" />	<text x="340" y="271" xml:space="preserve" style="font-size:60px;font-family:Cerial,monospace;fill:#5F9EA0;opacity:0.50;" textLength="110" lengthAdjust="spacingAndGlyphs" >|rémi   0|</text>	<text x="342" y="216" xml:space="preserve" style="font-size:60px;font-family:Cerial,monospace;fill:#5F9EA0;opacity:0.50;" textLength="110" lengthAdjust="spacingAndGlyphs" transform="rotate(-30 342.11 216.84)" >|rémi  30|</text>	<text x="316" y="168" xml:space="preserve" style="font-size:60px;font-family:Cerial,monospace;fill:#5F9EA0;opacity:0.50;" textLength="110" lengthAdjust="spacingAndGlyphs" transform="rotate(-60 316.84 168.89)" >|rémi  60|</text>	<text x="271" y="140" xml:space="preserve" style="font-size:60px;font-family:Cerial,monospace;fill:#5F9EA0;opacity:0.50;" textLength="110" lengthAdjust="spacingAndGlyphs" transform="rotate(-90 271 140)" >|rémi  90|</text>	<text x="216" y="137" xml:space="preserve" style="font-size:60px;font-family:Cerial,monospace;fill:#5F9EA0;opacity:0.50;" textLength="110" lengthAdjust="spacingAndGlyphs" transform="rotate(-120 216.84 137.89)" >|rémi 120|</text>	<text x="168" y="163" xml:space="preserve" style="font-size:60px;font-family:Cerial,monospace;fill:#5F9EA0;opacity:0.50;" textLength="110" lengthAdjust="spacingAndGlyphs" transform="rotate(-150 168.89 163.16)" >|rémi 150|</text>	<text x="140" y="209" xml:space="preserve" style="font-size:60px;font-family:Cerial,monospace;fill:#5F9EA0;opacity:0.50;" textLength="110" lengthAdjust="spacingAndGlyphs" transform="rotate(-180 140 209)" >|rémi 180|</text>	<text x="137" y="263" xml:space="preserve" style="font-size:60px;font-family:Cerial,monospace;fill:#5F9EA0;opacity:0.50;" textLength="110" lengthAdjust="spacingAndGlyphs" transform="rotate(-210 137.89 263.16)" >|rémi 210|</text>	<text x="163" y="311" xml:space="preserve" style="font-size:60px;font-family:Cerial,monospace;fill:#5F9EA0;opacity:0.50;" textLength="110" lengthAdjust="spacingAndGlyphs" transform="rotate(-240 163.16 311.11)" >|rémi 240|</text>	<text x="209" y="340" xml:space="preserve" style="font-size:60px;font-family:Cerial,monospace;fill:#5F9EA0;opacity:0.50;" textLength="110" lengthAdjust="spacingAndGlyphs" transform="rotate(-270 209 340)" >|rémi 270|</text>	<text x="263" y="342" xml:space="preserve" style="font-size:60px;font-family:Cerial,monospace;fill:#5F9EA0;opacity:0.50;" textLength="110" lengthAdjust="spacingAndGlyphs" transform="rotate(-300 263.16 342.11)" >|rémi 300|</text>	<text x="311" y="316" xml:space="preserve" style="font-size:60px;font-family:Cerial,monospace;fill:#5F9EA0;opacity:0.50;" textLength="110" lengthAdjust="spacingAndGlyphs" transform="rotate(-330 311.11 316.84)" >|rémi 330|</text></g></g></svg>