<?xml version="1.0" encoding="UTF-8" standalone="no"?><svg xmlns="http://www.w3.org/2000/svg" version="1.1" viewBox="0 0 480 480" ><defs><clipPath id="clip_0"><polygon points="0 0,480 0,480 480,0 480" /></clipPath></defs><g clip-path="url(#clip_0)">	<path style="fill:#FFFFFF;" d="M 0,0 L 480,0 L 480,480 L 0,480 L 0,0 Z" /><defs><clipPath id="clip_1"><polygon points="0 0,480 0,480 480,0 480" /></clipPath></defs><g clip-path="url(#clip_1)">	<path style="fill:#FFFFFF;" d="M 0,0 L 480,0 L 480,480 L 0,480 L 0,0 Z" />	<path style="fill:#008000;fill-opacity:0.25" d="M 15,20.50 C 15,17.47 17.47,15 20.50,15 L 109.50,15 C 112.53,15 115,17.47 115,20.50 L 115,99.50 C 115,102.53 112.53,105 109.50,105 L 20.50,105 C 17.47,105 15,102.53 15,99.50 L 15,20.50 Z" />	<path style="fill:#0000FF;fill-opacity:0.25" d="M 141.47,15 C 138.98,15 136.61,16.11 135,18 L 235,18 C 233.39,16.11 231.02,15 228.53,15 L 141.47,15 Z" />	<path style="fill:#008000;fill-opacity:0.25" d="M 235,99.50 C 235,102.53 232.53,105 229.50,105 L 140.50,105 C 137.47,105 135,102.53 135,99.50 L 135,18 L 235,18 L 235,99.50 Z" />	<path style="fill:#0000FF;fill-opacity:0.25" d="M 355,21.47 C 355,18.98 353.89,16.61 352,15 L 352,105 C 353.89,103.39 355,101.02 355,98.53 L 355,21.47 Z" />	<path style="fill:#008000;fill-opacity:0.25" d="M 255,20.50 C 255,17.47 257.47,15 260.50,15 L 352,15 L 352,105 L 260.50,105 C 257.47,105 255,102.53 255,99.50 L 255,20.50 Z" />	<path style="fill:#0000FF;fill-opacity:0.25" d="M 466.50,18 C 469.53,18 472,20.47 472,23.50 L 472,105 C 473.89,103.39 475,101.02 475,98.53 L 475,23.50 C 475,18.81 471.19,15 466.50,15 L 381.47,15 C 378.98,15 376.61,16.11 375,18 L 466.50,18 Z" />	<path style="fill:#008000;fill-opacity:0.25" d="M 375,18 L 466.50,18 C 469.53,18 472,20.47 472,23.50 L 472,105 L 380.50,105 C 377.47,105 375,102.53 375,99.50 L 375,18 Z" />	<path style="fill:#0000FF;fill-opacity:0.25" d="M 21.47,205 C 18.98,205 16.61,203.89 15,202 L 115,202 C 113.39,203.89 111.02,205 108.53,205 L 21.47,205 Z" />	<path style="fill:#008000;fill-opacity:0.25" d="M 15,120.50 C 15,117.47 17.47,115 20.50,115 L 109.50,115 C 112.53,115 115,117.47 115,120.50 L 115,202 L 15,202 L 15,120.50 Z" />	<path style="fill:#0000FF;fill-opacity:0.25" d="M 141.47,115 C 138.98,115 136.61,116.11 135,118 L 235,118 C 233.39,116.11 231.02,115 228.53,115 L 141.47,115 M 141.47,205 C 138.98,205 136.61,203.89 135,202 L 235,202 C 233.39,203.89 231.02,205 228.53,205 L 141.47,205 Z" />	<path style="fill:#008000;fill-opacity:0.25" d="M 135,118 L 235,118 L 235,202 L 135,202 L 135,118 Z" />	<path style="fill:#0000FF;fill-opacity:0.25" d="M 355,121.47 C 355,118.98 353.89,116.61 352,115 L 352,196.50 C 352,199.53 349.53,202 346.50,202 L 255,202 C 256.61,203.89 258.98,205 261.47,205 L 346.50,205 C 351.19,205 355,201.19 355,196.50 L 355,121.47 Z" />	<path style="fill:#008000;fill-opacity:0.25" d="M 352,196.50 C 352,199.53 349.53,202 346.50,202 L 255,202 L 255,120.50 C 255,117.47 257.47,115 260.50,115 L 352,115 L 352,196.50 Z" />	<path style="fill:#0000FF;fill-opacity:0.25" d="M 381.47,115 C 378.98,115 376.61,116.11 375,118 L 466.50,118 C 469.53,118 472,120.47 472,123.50 L 472,196.50 C 472,199.53 469.53,202 466.50,202 L 375,202 C 376.61,203.89 378.98,205 381.47,205 L 466.50,205 C 471.19,205 475,201.19 475,196.50 L 475,123.50 C 475,118.81 471.19,115 466.50,115 L 381.47,115 Z" />	<path style="fill:#008000;fill-opacity:0.25" d="M 375,115 L 375,118 L 466.50,118 C 469.53,118 472,120.47 472,123.50 L 472,196.50 C 472,199.53 469.53,202 466.50,202 L 375,202 L 375,205 L 375,115 Z" />	<path style="fill:#0000FF;fill-opacity:0.25" d="M 15,221.47 C 15,218.98 16.11,216.61 18,215 L 18,305 C 16.11,303.39 15,301.02 15,298.53 L 15,221.47 Z" />	<path style="fill:#008000;fill-opacity:0.25" d="M 109.50,215 C 112.53,215 115,217.47 115,220.50 L 115,299.50 C 115,302.53 112.53,305 109.50,305 L 18,305 L 18,215 L 109.50,215 Z" />	<path style="fill:#0000FF;fill-opacity:0.25" d="M 135,298.53 C 135,301.02 136.11,303.39 138,305 L 138,223.50 C 138,220.47 140.47,218 143.50,218 L 235,218 C 233.39,216.11 231.02,215 228.53,215 L 143.50,215 C 138.81,215 135,218.81 135,223.50 L 135,298.53 Z" />	<path style="fill:#008000;fill-opacity:0.25" d="M 138,223.50 C 138,220.47 140.47,218 143.50,218 L 235,218 L 235,299.50 C 235,302.53 232.53,305 229.50,305 L 138,305 L 138,223.50 Z" />	<path style="fill:#0000FF;fill-opacity:0.25" d="M 355,221.47 C 355,218.98 353.89,216.61 352,215 L 352,305 C 353.89,303.39 355,301.02 355,298.53 L 355,221.47 M 255,221.47 C 255,218.98 256.11,216.61 258,215 L 258,305 C 256.11,303.39 255,301.02 255,298.53 L 255,221.47 Z" />	<path style="fill:#008000;fill-opacity:0.25" d="M 258,215 L 352,215 L 352,305 L 258,305 L 258,215 Z" />	<path style="fill:#0000FF;fill-opacity:0.25" d="M 375,298.53 C 375,301.02 376.11,303.39 378,305 L 378,223.50 C 378,220.47 380.47,218 383.50,218 L 466.50,218 C 469.53,218 472,220.47 472,223.50 L 472,305 C 473.89,303.39 475,301.02 475,298.53 L 475,223.50 C 475,218.81 471.19,215 466.50,215 L 383.50,215 C 378.81,215 375,218.81 375,223.50 L 375,298.53 Z" />	<path style="fill:#008000;fill-opacity:0.25" d="M 375,305 L 378,305 L 378,223.50 C 378,220.47 380.47,218 383.50,218 L 466.50,218 C 469.53,218 472,220.47 472,223.50 L 472,305 L 475,305 L 375,305 Z" />	<path style="fill:#0000FF;fill-opacity:0.25" d="M 108.53,405 C 111.02,405 113.39,403.89 115,402 L 23.50,402 C 20.47,402 18,399.53 18,396.50 L 18,315 C 16.11,316.61 15,318.98 15,321.47 L 15,396.50 C 15,401.19 18.81,405 23.50,405 L 108.53,405 Z" />	<path style="fill:#008000;fill-opacity:0.25" d="M 23.50,402 C 20.47,402 18,399.53 18,396.50 L 18,315 L 109.50,315 C 112.53,315 115,317.47 115,320.50 L 115,402 L 23.50,402 Z" />	<path style="fill:#0000FF;fill-opacity:0.25" d="M 228.53,315 C 231.02,315 233.39,316.11 235,318 L 143.50,318 C 140.47,318 138,320.47 138,323.50 L 138,396.50 C 138,399.53 140.47,402 143.50,402 L 235,402 C 233.39,403.89 231.02,405 228.53,405 L 143.50,405 C 138.81,405 135,401.19 135,396.50 L 135,323.50 C 135,318.81 138.81,315 143.50,315 L 228.53,315 Z" />	<path style="fill:#008000;fill-opacity:0.25" d="M 235,315 L 235,318 L 143.50,318 C 140.47,318 138,320.47 138,323.50 L 138,396.50 C 138,399.53 140.47,402 143.50,402 L 235,402 L 235,405 L 235,315 Z" />	<path style="fill:#0000FF;fill-opacity:0.25" d="M 258,315 C 256.11,316.61 255,318.98 255,321.47 L 255,396.50 C 255,401.19 258.81,405 263.50,405 L 346.50,405 C 351.19,405 355,401.19 355,396.50 L 355,321.47 C 355,318.98 353.89,316.61 352,315 L 352,396.50 C 352,399.53 349.53,402 346.50,402 L 263.50,402 C 260.47,402 258,399.53 258,396.50 L 258,315 Z" />	<path style="fill:#008000;fill-opacity:0.25" d="M 258,315 L 255,315 L 355,315 L 352,315 L 352,396.50 C 352,399.53 349.53,402 346.50,402 L 263.50,402 C 260.47,402 258,399.53 258,396.50 L 258,315 Z" />	<path style="fill:#0000FF;fill-opacity:0.25" d="M 375,323.50 C 375,318.81 378.81,315 383.50,315 L 466.50,315 C 471.19,315 475,318.81 475,323.50 L 475,396.50 C 475,401.19 471.19,405 466.50,405 L 383.50,405 C 378.81,405 375,401.19 375,396.50 L 375,323.50 M 383.50,318 C 380.47,318 378,320.47 378,323.50 L 378,396.50 C 378,399.53 380.47,402 383.50,402 L 466.50,402 C 469.53,402 472,399.53 472,396.50 L 472,323.50 C 472,320.47 469.53,318 466.50,318 L 383.50,318 Z" />	<path style="fill:#008000;fill-opacity:0.25" d="M 383.50,318 C 380.47,318 378,320.47 378,323.50 L 378,396.50 C 378,399.53 380.47,402 383.50,402 L 466.50,402 C 469.53,402 472,399.53 472,396.50 L 472,323.50 C 472,320.47 469.53,318 466.50,318 L 383.50,318 Z" /></g></g></svg>