<?xml version="1.0" encoding="UTF-8" standalone="no"?><svg xmlns="http://www.w3.org/2000/svg" version="1.1" viewBox="0 0 480 480" ><defs><clipPath id="clip_0"><polygon points="0 0,480 0,480 480,0 480" /></clipPath></defs><g clip-path="url(#clip_0)">	<path style="fill:#DBE9FA;" d="M 0,0 L 480,0 L 480,480 L 0,480 L 0,0 Z" />	<path style="fill:#FFFFFF;" d="M 0,1 L 39,1 L 39,26 L 0,26 L 0,1 Z" />	<path style="fill:#F5F5F5;" d="M 0,27 L 39,27 L 39,52 L 0,52 L 0,27 Z" />	<path style="fill:#FFFFFF;" d="M 0,53 L 39,53 L 39,78 L 0,78 L 0,53 Z" />	<path style="fill:#3A3B3C;" d="M 0,0 L 40,0 L 40,1 L 0,1 L 0,0 Z" />	<path style="fill:#3A3B3C;" d="M 0,0 L 1,0 L 1,79 L 0,79 L 0,0 Z" />	<path style="fill:#3A3B3C;" d="M 0,26 L 40,26 L 40,27 L 0,27 L 0,26 Z" />	<path style="fill:#3A3B3C;" d="M 0,52 L 40,52 L 40,53 L 0,53 L 0,52 Z" />	<path style="fill:#3A3B3C;" d="M 0,78 L 40,78 L 40,79 L 0,79 L 0,78 Z" />	<path style="fill:#3A3B3C;" d="M 13,0 L 14,0 L 14,79 L 13,79 L 13,0 Z" />	<path style="fill:#3A3B3C;" d="M 26,0 L 27,0 L 27,79 L 26,79 L 26,0 Z" />	<path style="fill:#3A3B3C;" d="M 39,0 L 40,0 L 40,79 L 39,79 L 39,0 Z" /><defs><clipPath id="clip_1"><polygon points="0 0,480 0,480 480,0 480" /></clipPath></defs><g clip-path="url(#clip_1)"><defs><clipPath id="clip_2"><polygon points="1 1,13 1,13 26,1 26" /></clipPath></defs><g clip-path="url(#clip_2)">	<text x="3" y="24" xml:space="preserve" style="font-size:20px;font-family:Cerial,monospace;fill:#000000;" textLength="8" lengthAdjust="spacingAndGlyphs" >1</text></g><defs><clipPath id="clip_3"><polygon points="14 1,26 1,26 26,14 26" /></clipPath></defs><g clip-path="url(#clip_3)">	<text x="16" y="24" xml:space="preserve" style="font-size:20px;font-family:Cerial,monospace;fill:#000000;" textLength="8" lengthAdjust="spacingAndGlyphs" >2</text></g><defs><clipPath id="clip_4"><polygon points="27 1,39 1,39 26,27 26" /></clipPath></defs><g clip-path="url(#clip_4)">	<text x="29" y="24" xml:space="preserve" style="font-size:20px;font-family:Cerial,monospace;fill:#000000;" textLength="8" lengthAdjust="spacingAndGlyphs" >3</text></g><defs><clipPath id="clip_5"><polygon points="1 27,13 27,13 52,1 52" /></clipPath></defs><g clip-path="url(#clip_5)">	<text x="3" y="50" xml:space="preserve" style="font-size:20px;font-family:Cerial,monospace;fill:#000000;" textLength="8" lengthAdjust="spacingAndGlyphs" >4</text></g><defs><clipPath id="clip_6"><polygon points="14 27,26 27,26 52,14 52" /></clipPath></defs><g clip-path="url(#clip_6)">	<text x="16" y="50" xml:space="preserve" style="font-size:20px;font-family:Cerial,monospace;fill:#000000;" textLength="8" lengthAdjust="spacingAndGlyphs" >5</text></g><defs><clipPath id="clip_7"><polygon points="27 27,39 27,39 52,27 52" /></clipPath></defs><g clip-path="url(#clip_7)">	<text x="29" y="50" xml:space="preserve" style="font-size:20px;font-family:Cerial,monospace;fill:#000000;" textLength="8" lengthAdjust="spacingAndGlyphs" >6</text></g><defs><clipPath id="clip_8"><polygon points="1 53,13 53,13 78,1 78" /></clipPath></defs><g clip-path="url(#clip_8)">	<text x="3" y="76" xml:space="preserve" style="font-size:20px;font-family:Cerial,monospace;fill:#000000;" textLength="8" lengthAdjust="spacingAndGlyphs" >7</text></g><defs><clipPath id="clip_9"><polygon points="14 53,26 53,26 78,14 78" /></clipPath></defs><g clip-path="url(#clip_9)">	<text x="16" y="76" xml:space="preserve" style="font-size:20px;font-family:Cerial,monospace;fill:#000000;" textLength="8" lengthAdjust="spacingAndGlyphs" >8</text></g><defs><clipPath id="clip_10"><polygon points="27 53,39 53,39 78,27 78" /></clipPath></defs><g clip-path="url(#clip_10)">	<text x="29" y="76" xml:space="preserve" style="font-size:20px;font-family:Cerial,monospace;fill:#000000;" textLength="8" lengthAdjust="spacingAndGlyphs" >9</text></g></g></g></svg>