<?xml version="1.0" encoding="UTF-8" standalone="no"?><svg xmlns="http://www.w3.org/2000/svg" version="1.1" viewBox="0 0 480 480" ><defs><clipPath id="clip_0"><polygon points="0 0,480 0,480 480,0 480" /></clipPath></defs><g clip-path="url(#clip_0)">	<path style="fill:#DBE9FA;" d="M 0,0 L 480,0 L 480,480 L 0,480 L 0,0 Z" />	<path style="fill:#93FFE8;" d="M 0,2 L 176,2 L 176,27 L 0,27 L 0,2 Z" />	<path style="fill:#F0F8FF;" d="M 0,29 L 176,29 L 176,54 L 0,54 L 0,29 Z" />	<path style="fill:#93FFE8;" d="M 0,56 L 176,56 L 176,81 L 0,81 L 0,56 Z" />	<path style="fill:#F0F8FF;" d="M 0,83 L 176,83 L 176,108 L 0,108 L 0,83 Z" />	<path style="fill:#93FFE8;" d="M 0,110 L 176,110 L 176,135 L 0,135 L 0,110 Z" />	<path style="fill:#F0F8FF;" d="M 0,137 L 176,137 L 176,162 L 0,162 L 0,137 Z" />	<path style="fill:#93FFE8;" d="M 0,164 L 176,164 L 176,189 L 0,189 L 0,164 Z" />	<path style="fill:#F0F8FF;" d="M 0,191 L 176,191 L 176,216 L 0,216 L 0,191 Z" />	<path style="fill:#93FFE8;" d="M 0,218 L 176,218 L 176,243 L 0,243 L 0,218 Z" />	<path style="fill:#F0F8FF;" d="M 0,245 L 176,245 L 176,270 L 0,270 L 0,245 Z" />	<path style="fill:#008000;" d="M 0,0 L 178,0 L 178,2 L 0,2 L 0,0 Z" />	<path style="fill:#008000;" d="M 0,0 L 2,0 L 2,272 L 0,272 L 0,0 Z" />	<path style="fill:#008000;" d="M 0,27 L 178,27 L 178,29 L 0,29 L 0,27 Z" />	<path style="fill:#008000;" d="M 0,54 L 178,54 L 178,56 L 0,56 L 0,54 Z" />	<path style="fill:#008000;" d="M 0,81 L 178,81 L 178,83 L 0,83 L 0,81 Z" />	<path style="fill:#008000;" d="M 0,108 L 178,108 L 178,110 L 0,110 L 0,108 Z" />	<path style="fill:#008000;" d="M 0,135 L 178,135 L 178,137 L 0,137 L 0,135 Z" />	<path style="fill:#008000;" d="M 0,162 L 178,162 L 178,164 L 0,164 L 0,162 Z" />	<path style="fill:#008000;" d="M 0,189 L 178,189 L 178,191 L 0,191 L 0,189 Z" />	<path style="fill:#008000;" d="M 0,216 L 178,216 L 178,218 L 0,218 L 0,216 Z" />	<path style="fill:#008000;" d="M 0,243 L 178,243 L 178,245 L 0,245 L 0,243 Z" />	<path style="fill:#008000;" d="M 0,270 L 178,270 L 178,272 L 0,272 L 0,270 Z" />	<path style="fill:#008000;" d="M 22,0 L 24,0 L 24,272 L 22,272 L 22,0 Z" />	<path style="fill:#008000;" d="M 44,0 L 46,0 L 46,272 L 44,272 L 44,0 Z" />	<path style="fill:#008000;" d="M 66,0 L 68,0 L 68,272 L 66,272 L 66,0 Z" />	<path style="fill:#008000;" d="M 88,0 L 90,0 L 90,272 L 88,272 L 88,0 Z" />	<path style="fill:#008000;" d="M 110,0 L 112,0 L 112,272 L 110,272 L 110,0 Z" />	<path style="fill:#008000;" d="M 132,0 L 134,0 L 134,272 L 132,272 L 132,0 Z" />	<path style="fill:#008000;" d="M 154,0 L 156,0 L 156,272 L 154,272 L 154,0 Z" />	<path style="fill:#008000;" d="M 176,0 L 178,0 L 178,272 L 176,272 L 176,0 Z" /><defs><clipPath id="clip_1"><polygon points="0 0,480 0,480 480,0 480" /></clipPath></defs><g clip-path="url(#clip_1)"><defs><clipPath id="clip_2"><polygon points="2 2,22 2,22 27,2 27" /></clipPath></defs><g clip-path="url(#clip_2)">	<text x="8" y="25" xml:space="preserve" style="font-size:20px;font-family:Cerial,monospace;fill:#000000;" textLength="8" lengthAdjust="spacingAndGlyphs" >1</text></g><defs><clipPath id="clip_3"><polygon points="24 2,44 2,44 27,24 27" /></clipPath></defs><g clip-path="url(#clip_3)">	<text x="30" y="25" xml:space="preserve" style="font-size:20px;font-family:Cerial,monospace;fill:#000000;" textLength="8" lengthAdjust="spacingAndGlyphs" >2</text></g><defs><clipPath id="clip_4"><polygon points="46 2,66 2,66 27,46 27" /></clipPath></defs><g clip-path="url(#clip_4)">	<text x="52" y="25" xml:space="preserve" style="font-size:20px;font-family:Cerial,monospace;fill:#000000;" textLength="8" lengthAdjust="spacingAndGlyphs" >3</text></g><defs><clipPath id="clip_5"><polygon points="68 2,88 2,88 27,68 27" /></clipPath></defs><g clip-path="url(#clip_5)">	<text x="74" y="25" xml:space="preserve" style="font-size:20px;font-family:Cerial,monospace;fill:#000000;" textLength="8" lengthAdjust="spacingAndGlyphs" >4</text></g><defs><clipPath id="clip_6"><polygon points="90 2,110 2,110 27,90 27" /></clipPath></defs><g clip-path="url(#clip_6)">	<text x="96" y="25" xml:space="preserve" style="font-size:20px;font-family:Cerial,monospace;fill:#000000;" textLength="8" lengthAdjust="spacingAndGlyphs" >5</text></g><defs><clipPath id="clip_7"><polygon points="112 2,132 2,132 27,112 27" /></clipPath></defs><g clip-path="url(#clip_7)">	<text x="118" y="25" xml:space="preserve" style="font-size:20px;font-family:Cerial,monospace;fill:#000000;" textLength="8" lengthAdjust="spacingAndGlyphs" >6</text></g><defs><clipPath id="clip_8"><polygon points="134 2,154 2,154 27,134 27" /></clipPath></defs><g clip-path="url(#clip_8)">	<text x="140" y="25" xml:space="preserve" style="font-size:20px;font-family:Cerial,monospace;fill:#000000;" textLength="8" lengthAdjust="spacingAndGlyphs" >7</text></g><defs><clipPath id="clip_9"><polygon points="156 2,176 2,176 27,156 27" /></clipPath></defs><g clip-path="url(#clip_9)">	<text x="162" y="25" xml:space="preserve" style="font-size:20px;font-family:Cerial,monospace;fill:#000000;" textLength="8" lengthAdjust="spacingAndGlyphs" >8</text></g><defs><clipPath id="clip_10"><polygon points="2 29,22 29,22 54,2 54" /></clipPath></defs><g clip-path="url(#clip_10)">	<text x="8" y="52" xml:space="preserve" style="font-size:20px;font-family:Cerial,monospace;fill:#000000;" textLength="8" lengthAdjust="spacingAndGlyphs" >2</text></g><defs><clipPath id="clip_11"><polygon points="24 29,44 29,44 54,24 54" /></clipPath></defs><g clip-path="url(#clip_11)">	<text x="30" y="52" xml:space="preserve" style="font-size:20px;font-family:Cerial,monospace;fill:#000000;" textLength="8" lengthAdjust="spacingAndGlyphs" >4</text></g><defs><clipPath id="clip_12"><polygon points="46 29,66 29,66 54,46 54" /></clipPath></defs><g clip-path="url(#clip_12)">	<text x="52" y="52" xml:space="preserve" style="font-size:20px;font-family:Cerial,monospace;fill:#000000;" textLength="8" lengthAdjust="spacingAndGlyphs" >6</text></g><defs><clipPath id="clip_13"><polygon points="68 29,88 29,88 54,68 54" /></clipPath></defs><g clip-path="url(#clip_13)">	<text x="74" y="52" xml:space="preserve" style="font-size:20px;font-family:Cerial,monospace;fill:#000000;" textLength="8" lengthAdjust="spacingAndGlyphs" >8</text></g><defs><clipPath id="clip_14"><polygon points="90 29,110 29,110 54,90 54" /></clipPath></defs><g clip-path="url(#clip_14)">	<text x="92" y="52" xml:space="preserve" style="font-size:20px;font-family:Cerial,monospace;fill:#000000;" textLength="16" lengthAdjust="spacingAndGlyphs" >10</text></g><defs><clipPath id="clip_15"><polygon points="112 29,132 29,132 54,112 54" /></clipPath></defs><g clip-path="url(#clip_15)">	<text x="114" y="52" xml:space="preserve" style="font-size:20px;font-family:Cerial,monospace;fill:#000000;" textLength="16" lengthAdjust="spacingAndGlyphs" >12</text></g><defs><clipPath id="clip_16"><polygon points="134 29,154 29,154 54,134 54" /></clipPath></defs><g clip-path="url(#clip_16)">	<text x="136" y="52" xml:space="preserve" style="font-size:20px;font-family:Cerial,monospace;fill:#000000;" textLength="16" lengthAdjust="spacingAndGlyphs" >14</text></g><defs><clipPath id="clip_17"><polygon points="156 29,176 29,176 54,156 54" /></clipPath></defs><g clip-path="url(#clip_17)">	<text x="158" y="52" xml:space="preserve" style="font-size:20px;font-family:Cerial,monospace;fill:#000000;" textLength="16" lengthAdjust="spacingAndGlyphs" >16</text></g><defs><clipPath id="clip_18"><polygon points="2 56,22 56,22 81,2 81" /></clipPath></defs><g clip-path="url(#clip_18)">	<text x="8" y="79" xml:space="preserve" style="font-size:20px;font-family:Cerial,monospace;fill:#000000;" textLength="8" lengthAdjust="spacingAndGlyphs" >3</text></g><defs><clipPath id="clip_19"><polygon points="24 56,44 56,44 81,24 81" /></clipPath></defs><g clip-path="url(#clip_19)">	<text x="30" y="79" xml:space="preserve" style="font-size:20px;font-family:Cerial,monospace;fill:#000000;" textLength="8" lengthAdjust="spacingAndGlyphs" >6</text></g><defs><clipPath id="clip_20"><polygon points="46 56,66 56,66 81,46 81" /></clipPath></defs><g clip-path="url(#clip_20)">	<text x="52" y="79" xml:space="preserve" style="font-size:20px;font-family:Cerial,monospace;fill:#000000;" textLength="8" lengthAdjust="spacingAndGlyphs" >9</text></g><defs><clipPath id="clip_21"><polygon points="68 56,88 56,88 81,68 81" /></clipPath></defs><g clip-path="url(#clip_21)">	<text x="70" y="79" xml:space="preserve" style="font-size:20px;font-family:Cerial,monospace;fill:#000000;" textLength="16" lengthAdjust="spacingAndGlyphs" >12</text></g><defs><clipPath id="clip_22"><polygon points="90 56,110 56,110 81,90 81" /></clipPath></defs><g clip-path="url(#clip_22)">	<text x="92" y="79" xml:space="preserve" style="font-size:20px;font-family:Cerial,monospace;fill:#000000;" textLength="16" lengthAdjust="spacingAndGlyphs" >15</text></g><defs><clipPath id="clip_23"><polygon points="112 56,132 56,132 81,112 81" /></clipPath></defs><g clip-path="url(#clip_23)">	<text x="114" y="79" xml:space="preserve" style="font-size:20px;font-family:Cerial,monospace;fill:#000000;" textLength="16" lengthAdjust="spacingAndGlyphs" >18</text></g><defs><clipPath id="clip_24"><polygon points="134 56,154 56,154 81,134 81" /></clipPath></defs><g clip-path="url(#clip_24)">	<text x="136" y="79" xml:space="preserve" style="font-size:20px;font-family:Cerial,monospace;fill:#000000;" textLength="16" lengthAdjust="spacingAndGlyphs" >21</text></g><defs><clipPath id="clip_25"><polygon points="156 56,176 56,176 81,156 81" /></clipPath></defs><g clip-path="url(#clip_25)">	<text x="158" y="79" xml:space="preserve" style="font-size:20px;font-family:Cerial,monospace;fill:#000000;" textLength="16" lengthAdjust="spacingAndGlyphs" >24</text></g><defs><clipPath id="clip_26"><polygon points="2 83,22 83,22 108,2 108" /></clipPath></defs><g clip-path="url(#clip_26)">	<text x="8" y="106" xml:space="preserve" style="font-size:20px;font-family:Cerial,monospace;fill:#000000;" textLength="8" lengthAdjust="spacingAndGlyphs" >4</text></g><defs><clipPath id="clip_27"><polygon points="24 83,44 83,44 108,24 108" /></clipPath></defs><g clip-path="url(#clip_27)">	<text x="30" y="106" xml:space="preserve" style="font-size:20px;font-family:Cerial,monospace;fill:#000000;" textLength="8" lengthAdjust="spacingAndGlyphs" >8</text></g><defs><clipPath id="clip_28"><polygon points="46 83,66 83,66 108,46 108" /></clipPath></defs><g clip-path="url(#clip_28)">	<text x="48" y="106" xml:space="preserve" style="font-size:20px;font-family:Cerial,monospace;fill:#000000;" textLength="16" lengthAdjust="spacingAndGlyphs" >12</text></g><defs><clipPath id="clip_29"><polygon points="68 83,88 83,88 108,68 108" /></clipPath></defs><g clip-path="url(#clip_29)">	<text x="70" y="106" xml:space="preserve" style="font-size:20px;font-family:Cerial,monospace;fill:#000000;" textLength="16" lengthAdjust="spacingAndGlyphs" >16</text></g><defs><clipPath id="clip_30"><polygon points="90 83,110 83,110 108,90 108" /></clipPath></defs><g clip-path="url(#clip_30)">	<text x="92" y="106" xml:space="preserve" style="font-size:20px;font-family:Cerial,monospace;fill:#000000;" textLength="16" lengthAdjust="spacingAndGlyphs" >20</text></g><defs><clipPath id="clip_31"><polygon points="112 83,132 83,132 108,112 108" /></clipPath></defs><g clip-path="url(#clip_31)">	<text x="114" y="106" xml:space="preserve" style="font-size:20px;font-family:Cerial,monospace;fill:#000000;" textLength="16" lengthAdjust="spacingAndGlyphs" >24</text></g><defs><clipPath id="clip_32"><polygon points="134 83,154 83,154 108,134 108" /></clipPath></defs><g clip-path="url(#clip_32)">	<text x="136" y="106" xml:space="preserve" style="font-size:20px;font-family:Cerial,monospace;fill:#000000;" textLength="16" lengthAdjust="spacingAndGlyphs" >28</text></g><defs><clipPath id="clip_33"><polygon points="156 83,176 83,176 108,156 108" /></clipPath></defs><g clip-path="url(#clip_33)">	<text x="158" y="106" xml:space="preserve" style="font-size:20px;font-family:Cerial,monospace;fill:#000000;" textLength="16" lengthAdjust="spacingAndGlyphs" >32</text></g><defs><clipPath id="clip_34"><polygon points="2 110,22 110,22 135,2 135" /></clipPath></defs><g clip-path="url(#clip_34)">	<text x="8" y="133" xml:space="preserve" style="font-size:20px;font-family:Cerial,monospace;fill:#000000;" textLength="8" lengthAdjust="spacingAndGlyphs" >5</text></g><defs><clipPath id="clip_35"><polygon points="24 110,44 110,44 135,24 135" /></clipPath></defs><g clip-path="url(#clip_35)">	<text x="26" y="133" xml:space="preserve" style="font-size:20px;font-family:Cerial,monospace;fill:#000000;" textLength="16" lengthAdjust="spacingAndGlyphs" >10</text></g><defs><clipPath id="clip_36"><polygon points="46 110,66 110,66 135,46 135" /></clipPath></defs><g clip-path="url(#clip_36)">	<text x="48" y="133" xml:space="preserve" style="font-size:20px;font-family:Cerial,monospace;fill:#000000;" textLength="16" lengthAdjust="spacingAndGlyphs" >15</text></g><defs><clipPath id="clip_37"><polygon points="68 110,88 110,88 135,68 135" /></clipPath></defs><g clip-path="url(#clip_37)">	<text x="70" y="133" xml:space="preserve" style="font-size:20px;font-family:Cerial,monospace;fill:#000000;" textLength="16" lengthAdjust="spacingAndGlyphs" >20</text></g><defs><clipPath id="clip_38"><polygon points="90 110,110 110,110 135,90 135" /></clipPath></defs><g clip-path="url(#clip_38)">	<text x="92" y="133" xml:space="preserve" style="font-size:20px;font-family:Cerial,monospace;fill:#000000;" textLength="16" lengthAdjust="spacingAndGlyphs" >25</text></g><defs><clipPath id="clip_39"><polygon points="112 110,132 110,132 135,112 135" /></clipPath></defs><g clip-path="url(#clip_39)">	<text x="114" y="133" xml:space="preserve" style="font-size:20px;font-family:Cerial,monospace;fill:#000000;" textLength="16" lengthAdjust="spacingAndGlyphs" >30</text></g><defs><clipPath id="clip_40"><polygon points="134 110,154 110,154 135,134 135" /></clipPath></defs><g clip-path="url(#clip_40)">	<text x="136" y="133" xml:space="preserve" style="font-size:20px;font-family:Cerial,monospace;fill:#000000;" textLength="16" lengthAdjust="spacingAndGlyphs" >35</text></g><defs><clipPath id="clip_41"><polygon points="156 110,176 110,176 135,156 135" /></clipPath></defs><g clip-path="url(#clip_41)">	<text x="158" y="133" xml:space="preserve" style="font-size:20px;font-family:Cerial,monospace;fill:#000000;" textLength="16" lengthAdjust="spacingAndGlyphs" >40</text></g><defs><clipPath id="clip_42"><polygon points="2 137,22 137,22 162,2 162" /></clipPath></defs><g clip-path="url(#clip_42)">	<text x="8" y="160" xml:space="preserve" style="font-size:20px;font-family:Cerial,monospace;fill:#000000;" textLength="8" lengthAdjust="spacingAndGlyphs" >6</text></g><defs><clipPath id="clip_43"><polygon points="24 137,44 137,44 162,24 162" /></clipPath></defs><g clip-path="url(#clip_43)">	<text x="26" y="160" xml:space="preserve" style="font-size:20px;font-family:Cerial,monospace;fill:#000000;" textLength="16" lengthAdjust="spacingAndGlyphs" >12</text></g><defs><clipPath id="clip_44"><polygon points="46 137,66 137,66 162,46 162" /></clipPath></defs><g clip-path="url(#clip_44)">	<text x="48" y="160" xml:space="preserve" style="font-size:20px;font-family:Cerial,monospace;fill:#000000;" textLength="16" lengthAdjust="spacingAndGlyphs" >18</text></g><defs><clipPath id="clip_45"><polygon points="68 137,88 137,88 162,68 162" /></clipPath></defs><g clip-path="url(#clip_45)">	<text x="70" y="160" xml:space="preserve" style="font-size:20px;font-family:Cerial,monospace;fill:#000000;" textLength="16" lengthAdjust="spacingAndGlyphs" >24</text></g><defs><clipPath id="clip_46"><polygon points="90 137,110 137,110 162,90 162" /></clipPath></defs><g clip-path="url(#clip_46)">	<text x="92" y="160" xml:space="preserve" style="font-size:20px;font-family:Cerial,monospace;fill:#000000;" textLength="16" lengthAdjust="spacingAndGlyphs" >30</text></g><defs><clipPath id="clip_47"><polygon points="112 137,132 137,132 162,112 162" /></clipPath></defs><g clip-path="url(#clip_47)">	<text x="114" y="160" xml:space="preserve" style="font-size:20px;font-family:Cerial,monospace;fill:#000000;" textLength="16" lengthAdjust="spacingAndGlyphs" >36</text></g><defs><clipPath id="clip_48"><polygon points="134 137,154 137,154 162,134 162" /></clipPath></defs><g clip-path="url(#clip_48)">	<text x="136" y="160" xml:space="preserve" style="font-size:20px;font-family:Cerial,monospace;fill:#000000;" textLength="16" lengthAdjust="spacingAndGlyphs" >42</text></g><defs><clipPath id="clip_49"><polygon points="156 137,176 137,176 162,156 162" /></clipPath></defs><g clip-path="url(#clip_49)">	<text x="158" y="160" xml:space="preserve" style="font-size:20px;font-family:Cerial,monospace;fill:#000000;" textLength="16" lengthAdjust="spacingAndGlyphs" >48</text></g><defs><clipPath id="clip_50"><polygon points="2 164,22 164,22 189,2 189" /></clipPath></defs><g clip-path="url(#clip_50)">	<text x="8" y="187" xml:space="preserve" style="font-size:20px;font-family:Cerial,monospace;fill:#000000;" textLength="8" lengthAdjust="spacingAndGlyphs" >7</text></g><defs><clipPath id="clip_51"><polygon points="24 164,44 164,44 189,24 189" /></clipPath></defs><g clip-path="url(#clip_51)">	<text x="26" y="187" xml:space="preserve" style="font-size:20px;font-family:Cerial,monospace;fill:#000000;" textLength="16" lengthAdjust="spacingAndGlyphs" >14</text></g><defs><clipPath id="clip_52"><polygon points="46 164,66 164,66 189,46 189" /></clipPath></defs><g clip-path="url(#clip_52)">	<text x="48" y="187" xml:space="preserve" style="font-size:20px;font-family:Cerial,monospace;fill:#000000;" textLength="16" lengthAdjust="spacingAndGlyphs" >21</text></g><defs><clipPath id="clip_53"><polygon points="68 164,88 164,88 189,68 189" /></clipPath></defs><g clip-path="url(#clip_53)">	<text x="70" y="187" xml:space="preserve" style="font-size:20px;font-family:Cerial,monospace;fill:#000000;" textLength="16" lengthAdjust="spacingAndGlyphs" >28</text></g><defs><clipPath id="clip_54"><polygon points="90 164,110 164,110 189,90 189" /></clipPath></defs><g clip-path="url(#clip_54)">	<text x="92" y="187" xml:space="preserve" style="font-size:20px;font-family:Cerial,monospace;fill:#000000;" textLength="16" lengthAdjust="spacingAndGlyphs" >35</text></g><defs><clipPath id="clip_55"><polygon points="112 164,132 164,132 189,112 189" /></clipPath></defs><g clip-path="url(#clip_55)">	<text x="114" y="187" xml:space="preserve" style="font-size:20px;font-family:Cerial,monospace;fill:#000000;" textLength="16" lengthAdjust="spacingAndGlyphs" >42</text></g><defs><clipPath id="clip_56"><polygon points="134 164,154 164,154 189,134 189" /></clipPath></defs><g clip-path="url(#clip_56)">	<text x="136" y="187" xml:space="preserve" style="font-size:20px;font-family:Cerial,monospace;fill:#000000;" textLength="16" lengthAdjust="spacingAndGlyphs" >49</text></g><defs><clipPath id="clip_57"><polygon points="156 164,176 164,176 189,156 189" /></clipPath></defs><g clip-path="url(#clip_57)">	<text x="158" y="187" xml:space="preserve" style="font-size:20px;font-family:Cerial,monospace;fill:#000000;" textLength="16" lengthAdjust="spacingAndGlyphs" >56</text></g><defs><clipPath id="clip_58"><polygon points="2 191,22 191,22 216,2 216" /></clipPath></defs><g clip-path="url(#clip_58)">	<text x="8" y="214" xml:space="preserve" style="font-size:20px;font-family:Cerial,monospace;fill:#000000;" textLength="8" lengthAdjust="spacingAndGlyphs" >8</text></g><defs><clipPath id="clip_59"><polygon points="24 191,44 191,44 216,24 216" /></clipPath></defs><g clip-path="url(#clip_59)">	<text x="26" y="214" xml:space="preserve" style="font-size:20px;font-family:Cerial,monospace;fill:#000000;" textLength="16" lengthAdjust="spacingAndGlyphs" >16</text></g><defs><clipPath id="clip_60"><polygon points="46 191,66 191,66 216,46 216" /></clipPath></defs><g clip-path="url(#clip_60)">	<text x="48" y="214" xml:space="preserve" style="font-size:20px;font-family:Cerial,monospace;fill:#000000;" textLength="16" lengthAdjust="spacingAndGlyphs" >24</text></g><defs><clipPath id="clip_61"><polygon points="68 191,88 191,88 216,68 216" /></clipPath></defs><g clip-path="url(#clip_61)">	<text x="70" y="214" xml:space="preserve" style="font-size:20px;font-family:Cerial,monospace;fill:#000000;" textLength="16" lengthAdjust="spacingAndGlyphs" >32</text></g><defs><clipPath id="clip_62"><polygon points="90 191,110 191,110 216,90 216" /></clipPath></defs><g clip-path="url(#clip_62)">	<text x="92" y="214" xml:space="preserve" style="font-size:20px;font-family:Cerial,monospace;fill:#000000;" textLength="16" lengthAdjust="spacingAndGlyphs" >40</text></g><defs><clipPath id="clip_63"><polygon points="112 191,132 191,132 216,112 216" /></clipPath></defs><g clip-path="url(#clip_63)">	<text x="114" y="214" xml:space="preserve" style="font-size:20px;font-family:Cerial,monospace;fill:#000000;" textLength="16" lengthAdjust="spacingAndGlyphs" >48</text></g><defs><clipPath id="clip_64"><polygon points="134 191,154 191,154 216,134 216" /></clipPath></defs><g clip-path="url(#clip_64)">	<text x="136" y="214" xml:space="preserve" style="font-size:20px;font-family:Cerial,monospace;fill:#000000;" textLength="16" lengthAdjust="spacingAndGlyphs" >56</text></g><defs><clipPath id="clip_65"><polygon points="156 191,176 191,176 216,156 216" /></clipPath></defs><g clip-path="url(#clip_65)">	<text x="158" y="214" xml:space="preserve" style="font-size:20px;font-family:Cerial,monospace;fill:#000000;" textLength="16" lengthAdjust="spacingAndGlyphs" >64</text></g><defs><clipPath id="clip_66"><polygon points="2 218,22 218,22 243,2 243" /></clipPath></defs><g clip-path="url(#clip_66)">	<text x="8" y="241" xml:space="preserve" style="font-size:20px;font-family:Cerial,monospace;fill:#000000;" textLength="8" lengthAdjust="spacingAndGlyphs" >9</text></g><defs><clipPath id="clip_67"><polygon points="24 218,44 218,44 243,24 243" /></clipPath></defs><g clip-path="url(#clip_67)">	<text x="26" y="241" xml:space="preserve" style="font-size:20px;font-family:Cerial,monospace;fill:#000000;" textLength="16" lengthAdjust="spacingAndGlyphs" >18</text></g><defs><clipPath id="clip_68"><polygon points="46 218,66 218,66 243,46 243" /></clipPath></defs><g clip-path="url(#clip_68)">	<text x="48" y="241" xml:space="preserve" style="font-size:20px;font-family:Cerial,monospace;fill:#000000;" textLength="16" lengthAdjust="spacingAndGlyphs" >27</text></g><defs><clipPath id="clip_69"><polygon points="68 218,88 218,88 243,68 243" /></clipPath></defs><g clip-path="url(#clip_69)">	<text x="70" y="241" xml:space="preserve" style="font-size:20px;font-family:Cerial,monospace;fill:#000000;" textLength="16" lengthAdjust="spacingAndGlyphs" >36</text></g><defs><clipPath id="clip_70"><polygon points="90 218,110 218,110 243,90 243" /></clipPath></defs><g clip-path="url(#clip_70)">	<text x="92" y="241" xml:space="preserve" style="font-size:20px;font-family:Cerial,monospace;fill:#000000;" textLength="16" lengthAdjust="spacingAndGlyphs" >45</text></g><defs><clipPath id="clip_71"><polygon points="112 218,132 218,132 243,112 243" /></clipPath></defs><g clip-path="url(#clip_71)">	<text x="114" y="241" xml:space="preserve" style="font-size:20px;font-family:Cerial,monospace;fill:#000000;" textLength="16" lengthAdjust="spacingAndGlyphs" >54</text></g><defs><clipPath id="clip_72"><polygon points="134 218,154 218,154 243,134 243" /></clipPath></defs><g clip-path="url(#clip_72)">	<text x="136" y="241" xml:space="preserve" style="font-size:20px;font-family:Cerial,monospace;fill:#000000;" textLength="16" lengthAdjust="spacingAndGlyphs" >63</text></g><defs><clipPath id="clip_73"><polygon points="156 218,176 218,176 243,156 243" /></clipPath></defs><g clip-path="url(#clip_73)">	<text x="158" y="241" xml:space="preserve" style="font-size:20px;font-family:Cerial,monospace;fill:#000000;" textLength="16" lengthAdjust="spacingAndGlyphs" >72</text></g><defs><clipPath id="clip_74"><polygon points="2 245,22 245,22 270,2 270" /></clipPath></defs><g clip-path="url(#clip_74)">	<text x="4" y="268" xml:space="preserve" style="font-size:20px;font-family:Cerial,monospace;fill:#000000;" textLength="16" lengthAdjust="spacingAndGlyphs" >10</text></g><defs><clipPath id="clip_75"><polygon points="24 245,44 245,44 270,24 270" /></clipPath></defs><g clip-path="url(#clip_75)">	<text x="26" y="268" xml:space="preserve" style="font-size:20px;font-family:Cerial,monospace;fill:#000000;" textLength="16" lengthAdjust="spacingAndGlyphs" >20</text></g><defs><clipPath id="clip_76"><polygon points="46 245,66 245,66 270,46 270" /></clipPath></defs><g clip-path="url(#clip_76)">	<text x="48" y="268" xml:space="preserve" style="font-size:20px;font-family:Cerial,monospace;fill:#000000;" textLength="16" lengthAdjust="spacingAndGlyphs" >30</text></g><defs><clipPath id="clip_77"><polygon points="68 245,88 245,88 270,68 270" /></clipPath></defs><g clip-path="url(#clip_77)">	<text x="70" y="268" xml:space="preserve" style="font-size:20px;font-family:Cerial,monospace;fill:#000000;" textLength="16" lengthAdjust="spacingAndGlyphs" >40</text></g><defs><clipPath id="clip_78"><polygon points="90 245,110 245,110 270,90 270" /></clipPath></defs><g clip-path="url(#clip_78)">	<text x="92" y="268" xml:space="preserve" style="font-size:20px;font-family:Cerial,monospace;fill:#000000;" textLength="16" lengthAdjust="spacingAndGlyphs" >50</text></g><defs><clipPath id="clip_79"><polygon points="112 245,132 245,132 270,112 270" /></clipPath></defs><g clip-path="url(#clip_79)">	<text x="114" y="268" xml:space="preserve" style="font-size:20px;font-family:Cerial,monospace;fill:#000000;" textLength="16" lengthAdjust="spacingAndGlyphs" >60</text></g><defs><clipPath id="clip_80"><polygon points="134 245,154 245,154 270,134 270" /></clipPath></defs><g clip-path="url(#clip_80)">	<text x="136" y="268" xml:space="preserve" style="font-size:20px;font-family:Cerial,monospace;fill:#000000;" textLength="16" lengthAdjust="spacingAndGlyphs" >70</text></g><defs><clipPath id="clip_81"><polygon points="156 245,176 245,176 270,156 270" /></clipPath></defs><g clip-path="url(#clip_81)">	<text x="158" y="268" xml:space="preserve" style="font-size:20px;font-family:Cerial,monospace;fill:#000000;" textLength="16" lengthAdjust="spacingAndGlyphs" >80</text></g></g></g></svg>