<?xml version="1.0" encoding="UTF-8" standalone="no"?><svg xmlns="http://www.w3.org/2000/svg" version="1.1" viewBox="0 0 480 480" ><defs><clipPath id="clip_0"><polygon points="0 0,480 0,480 480,0 480" /></clipPath></defs><g clip-path="url(#clip_0)">	<path style="fill:#DBE9FA;" d="M 0,0 L 480,0 L 480,480 L 0,480 L 0,0 Z" />	<path style="fill:#FFFFFF;" d="M 0,1 L 13,1 L 13,26 L 0,26 L 0,1 Z" />	<path style="fill:#3A3B3C;" d="M 0,0 L 14,0 L 14,1 L 0,1 L 0,0 Z" />	<path style="fill:#3A3B3C;" d="M 0,0 L 1,0 L 1,27 L 0,27 L 0,0 Z" />	<path style="fill:#3A3B3C;" d="M 0,26 L 14,26 L 14,27 L 0,27 L 0,26 Z" />	<path style="fill:#3A3B3C;" d="M 13,0 L 14,0 L 14,27 L 13,27 L 13,0 Z" /><defs><clipPath id="clip_1"><polygon points="0 0,480 0,480 480,0 480" /></clipPath></defs><g clip-path="url(#clip_1)"><defs><clipPath id="clip_2"><polygon points="1 1,13 1,13 26,1 26" /></clipPath></defs><g clip-path="url(#clip_2)">	<text x="3" y="24" xml:space="preserve" style="font-size:20px;font-family:Cerial,monospace;fill:#000000;" textLength="8" lengthAdjust="spacingAndGlyphs" >1</text></g></g></g></svg>