<?xml version="1.0" encoding="UTF-8" standalone="no"?><svg xmlns="http://www.w3.org/2000/svg" version="1.1" viewBox="0 0 480 480" ><defs><clipPath id="clip_0"><polygon points="23 19,407 19,407 433,23 433" /></clipPath></defs><g clip-path="url(#clip_0)">	<path style="fill:#151B54;fill-opacity:0.12" d="M 23,19 L 407,19 L 407,433 L 23,433 L 23,19 Z" />	<path style="fill:#0000FF;fill-opacity:0.12" d="M 36,36 L 247,36 L 247,227 L 36,227 L 36,36 Z" />	<path style="fill:#E0B0FF;" d="M 39,119 L 39,144 L 244,144 L 244,119 L 39,119 Z" />	<path style="fill:#893BFF;" d="M 32,117.50 C 32,114.47 34.47,112 37.50,112 L 245.50,112 C 248.53,112 251,114.47 251,117.50 L 251,145.50 C 251,148.53 248.53,151 245.50,151 L 37.50,151 C 34.47,151 32,148.53 32,145.50 L 32,117.50 M 39,119 L 39,144 L 244,144 L 244,119 L 39,119 Z" /><defs><clipPath id="clip_1"><polygon points="41 121,242 121,242 142,41 142" /></clipPath></defs><g clip-path="url(#clip_1)">	<text x="41" y="142" xml:space="preserve" style="font-size:20px;font-family:Cerial,monospace;fill:#5F5F5F;" textLength="40" lengthAdjust="spacingAndGlyphs" >hello</text></g></g></svg>