<?xml version="1.0" encoding="UTF-8" standalone="no"?><svg xmlns="http://www.w3.org/2000/svg" version="1.1" viewBox="0 0 480 480" ><defs><clipPath id="clip_0"><polygon points="0 0,480 0,480 480,0 480" /></clipPath></defs><g clip-path="url(#clip_0)">	<path style="fill:#FFFFFF;" d="M 0,0 L 480,0 L 480,480 L 0,480 L 0,0 Z" /><defs><clipPath id="clip_1"><polygon points="0 44,480 44,480 480,0 480" /></clipPath></defs><g clip-path="url(#clip_1)"></g></g><defs><clipPath id="clip_2"><polygon points="0 0,480 0,480 480,0 480" /></clipPath></defs><g clip-path="url(#clip_2)">	<path style="fill:#FFFFFF;" d="M 0,0 L 480,0 L 480,480 L 0,480 L 0,0 Z" />	<path style="fill:#373A42;" d="M 0,0 L 480,0 L 480,44 L 0,44 L 0,0 Z" /><defs><clipPath id="clip_3"><polygon points="0 0,480 0,480 44,0 44" /></clipPath></defs><g clip-path="url(#clip_3)">	<text x="169" y="34" xml:space="preserve" style="font-size:22px;font-family:Berial;fill:#E8EAF0;" textLength="143" lengthAdjust="spacingAndGlyphs" >Switch sample</text></g><defs><clipPath id="clip_4"><polygon points="10 10,76 10,76 34,10 34" /></clipPath></defs><g clip-path="url(#clip_4)">	<text x="10" y="34" xml:space="preserve" style="font-size:22px;font-family:Berial;fill:#E8EAF0;" textLength="66" lengthAdjust="spacingAndGlyphs" >&lt; Back</text></g><defs><clipPath id="clip_5"><polygon points="0 44,480 44,480 480,0 480" /></clipPath></defs><g clip-path="url(#clip_5)"><defs><clipPath id="clip_6"><polygon points="0 44,480 44,480 72,0 72" /></clipPath></defs><g clip-path="url(#clip_6)">	<text x="169" y="70" xml:space="preserve" style="font-size:22px;font-family:Berial;fill:#303133;" textLength="143" lengthAdjust="spacingAndGlyphs" >Normal switch</text></g>	<path style="fill:#E3E3E3;" d="M 250,82 Q 254.14,82 257.06,84.92 Q 260,87.86 260,92 L 260,92 Q 260,96.14 257.06,99.06 Q 254.14,102 250,102 L 230,102 Q 225.86,102 222.92,99.06 Q 220,96.14 220,92 L 220,92 Q 220,87.86 222.92,84.92 Q 225.86,82 230,82 L 250,82 Z" />	<path style="fill:#FFFFFF;" d="M 230,84 Q 233.31,84 235.66,86.34 Q 238,88.69 238,92 L 238,92 Q 238,95.31 235.66,97.66 Q 233.31,100 230,100 L 230,100 Q 226.69,100 224.34,97.66 Q 222,95.31 222,92 L 222,92 Q 222,88.69 224.34,86.34 Q 226.69,84 230,84 L 230,84 Z" /><defs><clipPath id="clip_7"><polygon points="0 112,480 112,480 140,0 140" /></clipPath></defs><g clip-path="url(#clip_7)">	<text x="147" y="138" xml:space="preserve" style="font-size:22px;font-family:Berial;fill:#303133;" textLength="187" lengthAdjust="spacingAndGlyphs" >Customized switch</text></g>	<path style="fill:#D3D3D3;" d="M 300,150 Q 316.56,150 328.28,161.72 Q 340,173.44 340,190 L 340,190 Q 340,206.56 328.28,218.28 Q 316.56,230 300,230 L 180,230 Q 163.44,230 151.72,218.28 Q 140,206.56 140,190 L 140,190 Q 140,173.44 151.72,161.72 Q 163.44,150 180,150 L 300,150 Z" />	<path style="fill:#FFFFFF;" d="M 180,156 Q 194.08,156 204.03,165.95 Q 214,175.92 214,190 L 214,190 Q 214,204.08 204.03,214.03 Q 194.08,224 180,224 L 180,224 Q 165.92,224 155.95,214.03 Q 146,204.08 146,190 L 146,190 Q 146,175.92 155.95,165.95 Q 165.92,156 180,156 L 180,156 Z" /><defs><clipPath id="clip_8"><polygon points="0 240,480 240,480 244,0 244" /></clipPath></defs><g clip-path="url(#clip_8)"></g></g></g></svg>