<?xml version="1.0" encoding="UTF-8" standalone="no"?><svg xmlns="http://www.w3.org/2000/svg" version="1.1" viewBox="0 0 480 480" ><defs><clipPath id="clip_0"><polygon points="0 0,480 0,480 480,0 480" /></clipPath></defs><g clip-path="url(#clip_0)">	<path style="fill:#FFFFFF;" d="M 0,0 L 480,0 L 480,480 L 0,480 L 0,0 Z" /><defs><clipPath id="clip_1"><polygon points="0 44,480 44,480 480,0 480" /></clipPath></defs><g clip-path="url(#clip_1)"></g></g><defs><clipPath id="clip_2"><polygon points="0 0,480 0,480 480,0 480" /></clipPath></defs><g clip-path="url(#clip_2)">	<path style="fill:#FFFFFF;" d="M 0,0 L 480,0 L 480,480 L 0,480 L 0,0 Z" />	<path style="fill:#373A42;" d="M 0,0 L 480,0 L 480,44 L 0,44 L 0,0 Z" /><defs><clipPath id="clip_3"><polygon points="0 0,480 0,480 44,0 44" /></clipPath></defs><g clip-path="url(#clip_3)">	<text x="169" y="34" xml:space="preserve" style="font-size:22px;font-family:Berial;fill:#E8EAF0;" textLength="143" lengthAdjust="spacingAndGlyphs" >Button sample</text></g><defs><clipPath id="clip_4"><polygon points="10 10,76 10,76 34,10 34" /></clipPath></defs><g clip-path="url(#clip_4)">	<text x="10" y="34" xml:space="preserve" style="font-size:22px;font-family:Berial;fill:#E8EAF0;" textLength="66" lengthAdjust="spacingAndGlyphs" >&lt; Back</text></g><defs><clipPath id="clip_5"><polygon points="0 44,480 44,480 480,0 480" /></clipPath></defs><g clip-path="url(#clip_5)"><defs><clipPath id="clip_6"><polygon points="0 44,480 44,480 72,0 72" /></clipPath></defs><g clip-path="url(#clip_6)">	<text x="119" y="70" xml:space="preserve" style="font-size:22px;font-family:Berial;fill:#303133;" textLength="242" lengthAdjust="spacingAndGlyphs" >Button clicked 1 times</text></g>	<path style="fill:#C7E152;" d="M 403,94 Q 425.78,94 441.89,110.11 Q 458,126.22 458,149 L 458,149 Q 458,171.78 441.89,187.89 Q 425.78,204 403,204 L 77,204 Q 54.22,204 38.11,187.89 Q 22,171.78 22,149 L 22,149 Q 22,126.22 38.11,110.11 Q 54.22,94 77,94 L 403,94 Z" />	<path style="fill:#C7E152;" d="M 402,88 Q 427.67,88 445.83,106.16 Q 464,124.33 464,150 L 464,148 Q 464,173.67 445.83,191.83 Q 427.67,210 402,210 L 78,210 Q 52.33,210 34.16,191.83 Q 16,173.67 16,148 L 16,150 Q 16,124.33 34.16,106.16 Q 52.33,88 78,88 L 402,88 M 78,90 Q 53.16,90 35.58,107.58 Q 18,125.16 18,150 L 18,148 Q 18,172.84 35.58,190.42 Q 53.16,208 78,208 L 402,208 Q 426.84,208 444.42,190.42 Q 462,172.84 462,148 L 462,150 Q 462,125.16 444.42,107.58 Q 426.84,90 402,90 L 78,90 Z" /><defs><clipPath id="clip_7"><polygon points="25 97,455 97,455 201,25 201" /></clipPath></defs><g clip-path="url(#clip_7)">	<text x="173" y="149" xml:space="preserve" style="font-size:50px;font-family:Berial;fill:#000000;" >Click</text>	<text x="173" y="201" xml:space="preserve" style="font-size:50px;font-family:Berial;fill:#000000;" >on me</text></g></g></g></svg>