<?xml version="1.0" encoding="UTF-8" standalone="no"?><svg xmlns="http://www.w3.org/2000/svg" version="1.1" viewBox="0 0 480 480" ><defs><clipPath id="clip_0"><polygon points="0 0,480 0,480 480,0 480" /></clipPath></defs><g clip-path="url(#clip_0)">	<path style="fill:#FFFFFF;" d="M 0,0 L 480,0 L 480,480 L 0,480 L 0,0 Z" /><defs><clipPath id="clip_1"><polygon points="0 44,480 44,480 480,0 480" /></clipPath></defs><g clip-path="url(#clip_1)"></g></g><defs><clipPath id="clip_2"><polygon points="0 0,480 0,480 480,0 480" /></clipPath></defs><g clip-path="url(#clip_2)">	<path style="fill:#FFFFFF;" d="M 0,0 L 480,0 L 480,480 L 0,480 L 0,0 Z" />	<path style="fill:#373A42;" d="M 0,0 L 480,0 L 480,44 L 0,44 L 0,0 Z" /><defs><clipPath id="clip_3"><polygon points="0 0,480 0,480 44,0 44" /></clipPath></defs><g clip-path="url(#clip_3)">	<text x="147" y="34" xml:space="preserve" style="font-size:22px;font-family:Berial;fill:#E8EAF0;" textLength="187" lengthAdjust="spacingAndGlyphs" >ScrollView sample</text></g><defs><clipPath id="clip_4"><polygon points="10 10,76 10,76 34,10 34" /></clipPath></defs><g clip-path="url(#clip_4)">	<text x="10" y="34" xml:space="preserve" style="font-size:22px;font-family:Berial;fill:#E8EAF0;" textLength="66" lengthAdjust="spacingAndGlyphs" >&lt; Back</text></g><defs><clipPath id="clip_5"><polygon points="0 44,480 44,480 72,0 72" /></clipPath></defs><g clip-path="url(#clip_5)">	<text x="119" y="70" xml:space="preserve" style="font-size:22px;font-family:Berial;fill:#303133;" textLength="242" lengthAdjust="spacingAndGlyphs" >Horizontal scroll view</text></g><defs><clipPath id="clip_6"><polygon points="0 72,480 72,480 262,0 262" /></clipPath></defs><g clip-path="url(#clip_6)">	<path style="fill:#C7E152;" d="M 17,77 Q 20.72,77 23.36,79.64 Q 26,82.28 26,86 L 26,248 Q 26,251.72 23.36,254.36 Q 20.72,257 17,257 L 14,257 Q 10.28,257 7.64,254.36 Q 5,251.72 5,248 L 5,86 Q 5,82.28 7.64,79.64 Q 10.28,77 14,77 L 17,77 Z" />	<path style="fill:#C7E152;" d="M 16.50,73 Q 22.08,73 26.03,76.95 Q 30,80.92 30,86.50 L 30,247.50 Q 30,253.08 26.03,257.03 Q 22.08,261 16.50,261 L 14.50,261 Q 8.92,261 4.95,257.03 Q 1,253.08 1,247.50 L 1,86.50 Q 1,80.92 4.95,76.95 Q 8.92,73 14.50,73 L 16.50,73 M 14.50,75 Q 9.75,75 6.38,78.38 Q 3,81.75 3,86.50 L 3,247.50 Q 3,252.25 6.38,255.63 Q 9.75,259 14.50,259 L 16.50,259 Q 21.25,259 24.63,255.63 Q 28,252.25 28,247.50 L 28,86.50 Q 28,81.75 24.63,78.38 Q 21.25,75 16.50,75 L 14.50,75 Z" /><defs><clipPath id="clip_7"><polygon points="10 82,21 82,21 252,10 252" /></clipPath></defs><g clip-path="url(#clip_7)">	<text x="10" y="179" xml:space="preserve" style="font-size:22px;font-family:Berial;fill:#000000;" textLength="11" lengthAdjust="spacingAndGlyphs" >A</text></g>	<path style="fill:#C7E152;" d="M 48,77 Q 51.72,77 54.36,79.64 Q 57,82.28 57,86 L 57,248 Q 57,251.72 54.36,254.36 Q 51.72,257 48,257 L 45,257 Q 41.28,257 38.64,254.36 Q 36,251.72 36,248 L 36,86 Q 36,82.28 38.64,79.64 Q 41.28,77 45,77 L 48,77 Z" /><defs><clipPath id="clip_8"><polygon points="41 82,52 82,52 252,41 252" /></clipPath></defs><g clip-path="url(#clip_8)">	<text x="41" y="179" xml:space="preserve" style="font-size:22px;font-family:Berial;fill:#000000;" textLength="11" lengthAdjust="spacingAndGlyphs" >B</text></g>	<path style="fill:#C7E152;" d="M 79,77 Q 82.72,77 85.36,79.64 Q 88,82.28 88,86 L 88,248 Q 88,251.72 85.36,254.36 Q 82.72,257 79,257 L 76,257 Q 72.28,257 69.64,254.36 Q 67,251.72 67,248 L 67,86 Q 67,82.28 69.64,79.64 Q 72.28,77 76,77 L 79,77 Z" /><defs><clipPath id="clip_9"><polygon points="72 82,83 82,83 252,72 252" /></clipPath></defs><g clip-path="url(#clip_9)">	<text x="72" y="179" xml:space="preserve" style="font-size:22px;font-family:Berial;fill:#000000;" textLength="11" lengthAdjust="spacingAndGlyphs" >C</text></g>	<path style="fill:#C7E152;" d="M 110,77 Q 113.72,77 116.36,79.64 Q 119,82.28 119,86 L 119,248 Q 119,251.72 116.36,254.36 Q 113.72,257 110,257 L 107,257 Q 103.28,257 100.64,254.36 Q 98,251.72 98,248 L 98,86 Q 98,82.28 100.64,79.64 Q 103.28,77 107,77 L 110,77 Z" /><defs><clipPath id="clip_10"><polygon points="103 82,114 82,114 252,103 252" /></clipPath></defs><g clip-path="url(#clip_10)">	<text x="103" y="179" xml:space="preserve" style="font-size:22px;font-family:Berial;fill:#000000;" textLength="11" lengthAdjust="spacingAndGlyphs" >D</text></g>	<path style="fill:#C7E152;" d="M 141,77 Q 144.72,77 147.36,79.64 Q 150,82.28 150,86 L 150,248 Q 150,251.72 147.36,254.36 Q 144.72,257 141,257 L 138,257 Q 134.28,257 131.64,254.36 Q 129,251.72 129,248 L 129,86 Q 129,82.28 131.64,79.64 Q 134.28,77 138,77 L 141,77 Z" /><defs><clipPath id="clip_11"><polygon points="134 82,145 82,145 252,134 252" /></clipPath></defs><g clip-path="url(#clip_11)">	<text x="134" y="179" xml:space="preserve" style="font-size:22px;font-family:Berial;fill:#000000;" textLength="11" lengthAdjust="spacingAndGlyphs" >E</text></g>	<path style="fill:#C7E152;" d="M 172,77 Q 175.72,77 178.36,79.64 Q 181,82.28 181,86 L 181,248 Q 181,251.72 178.36,254.36 Q 175.72,257 172,257 L 169,257 Q 165.28,257 162.64,254.36 Q 160,251.72 160,248 L 160,86 Q 160,82.28 162.64,79.64 Q 165.28,77 169,77 L 172,77 Z" /><defs><clipPath id="clip_12"><polygon points="165 82,176 82,176 252,165 252" /></clipPath></defs><g clip-path="url(#clip_12)">	<text x="165" y="179" xml:space="preserve" style="font-size:22px;font-family:Berial;fill:#000000;" textLength="11" lengthAdjust="spacingAndGlyphs" >F</text></g>	<path style="fill:#C7E152;" d="M 203,77 Q 206.72,77 209.36,79.64 Q 212,82.28 212,86 L 212,248 Q 212,251.72 209.36,254.36 Q 206.72,257 203,257 L 200,257 Q 196.28,257 193.64,254.36 Q 191,251.72 191,248 L 191,86 Q 191,82.28 193.64,79.64 Q 196.28,77 200,77 L 203,77 Z" /><defs><clipPath id="clip_13"><polygon points="196 82,207 82,207 252,196 252" /></clipPath></defs><g clip-path="url(#clip_13)">	<text x="196" y="179" xml:space="preserve" style="font-size:22px;font-family:Berial;fill:#000000;" textLength="11" lengthAdjust="spacingAndGlyphs" >G</text></g>	<path style="fill:#C7E152;" d="M 234,77 Q 237.72,77 240.36,79.64 Q 243,82.28 243,86 L 243,248 Q 243,251.72 240.36,254.36 Q 237.72,257 234,257 L 231,257 Q 227.28,257 224.64,254.36 Q 222,251.72 222,248 L 222,86 Q 222,82.28 224.64,79.64 Q 227.28,77 231,77 L 234,77 Z" /><defs><clipPath id="clip_14"><polygon points="227 82,238 82,238 252,227 252" /></clipPath></defs><g clip-path="url(#clip_14)">	<text x="227" y="179" xml:space="preserve" style="font-size:22px;font-family:Berial;fill:#000000;" textLength="11" lengthAdjust="spacingAndGlyphs" >H</text></g>	<path style="fill:#C7E152;" d="M 265,77 Q 268.72,77 271.36,79.64 Q 274,82.28 274,86 L 274,248 Q 274,251.72 271.36,254.36 Q 268.72,257 265,257 L 262,257 Q 258.28,257 255.64,254.36 Q 253,251.72 253,248 L 253,86 Q 253,82.28 255.64,79.64 Q 258.28,77 262,77 L 265,77 Z" /><defs><clipPath id="clip_15"><polygon points="258 82,269 82,269 252,258 252" /></clipPath></defs><g clip-path="url(#clip_15)">	<text x="258" y="179" xml:space="preserve" style="font-size:22px;font-family:Berial;fill:#000000;" textLength="11" lengthAdjust="spacingAndGlyphs" >I</text></g>	<path style="fill:#C7E152;" d="M 296,77 Q 299.72,77 302.36,79.64 Q 305,82.28 305,86 L 305,248 Q 305,251.72 302.36,254.36 Q 299.72,257 296,257 L 293,257 Q 289.28,257 286.64,254.36 Q 284,251.72 284,248 L 284,86 Q 284,82.28 286.64,79.64 Q 289.28,77 293,77 L 296,77 Z" /><defs><clipPath id="clip_16"><polygon points="289 82,300 82,300 252,289 252" /></clipPath></defs><g clip-path="url(#clip_16)">	<text x="289" y="179" xml:space="preserve" style="font-size:22px;font-family:Berial;fill:#000000;" textLength="11" lengthAdjust="spacingAndGlyphs" >J</text></g>	<path style="fill:#C7E152;" d="M 327,77 Q 330.72,77 333.36,79.64 Q 336,82.28 336,86 L 336,248 Q 336,251.72 333.36,254.36 Q 330.72,257 327,257 L 324,257 Q 320.28,257 317.64,254.36 Q 315,251.72 315,248 L 315,86 Q 315,82.28 317.64,79.64 Q 320.28,77 324,77 L 327,77 Z" /><defs><clipPath id="clip_17"><polygon points="320 82,331 82,331 252,320 252" /></clipPath></defs><g clip-path="url(#clip_17)">	<text x="320" y="179" xml:space="preserve" style="font-size:22px;font-family:Berial;fill:#000000;" textLength="11" lengthAdjust="spacingAndGlyphs" >K</text></g>	<path style="fill:#C7E152;" d="M 358,77 Q 361.72,77 364.36,79.64 Q 367,82.28 367,86 L 367,248 Q 367,251.72 364.36,254.36 Q 361.72,257 358,257 L 355,257 Q 351.28,257 348.64,254.36 Q 346,251.72 346,248 L 346,86 Q 346,82.28 348.64,79.64 Q 351.28,77 355,77 L 358,77 Z" /><defs><clipPath id="clip_18"><polygon points="351 82,362 82,362 252,351 252" /></clipPath></defs><g clip-path="url(#clip_18)">	<text x="351" y="179" xml:space="preserve" style="font-size:22px;font-family:Berial;fill:#000000;" textLength="11" lengthAdjust="spacingAndGlyphs" >L</text></g>	<path style="fill:#C7E152;" d="M 389,77 Q 392.72,77 395.36,79.64 Q 398,82.28 398,86 L 398,248 Q 398,251.72 395.36,254.36 Q 392.72,257 389,257 L 386,257 Q 382.28,257 379.64,254.36 Q 377,251.72 377,248 L 377,86 Q 377,82.28 379.64,79.64 Q 382.28,77 386,77 L 389,77 Z" /><defs><clipPath id="clip_19"><polygon points="382 82,393 82,393 252,382 252" /></clipPath></defs><g clip-path="url(#clip_19)">	<text x="382" y="179" xml:space="preserve" style="font-size:22px;font-family:Berial;fill:#000000;" textLength="11" lengthAdjust="spacingAndGlyphs" >M</text></g>	<path style="fill:#C7E152;" d="M 420,77 Q 423.72,77 426.36,79.64 Q 429,82.28 429,86 L 429,248 Q 429,251.72 426.36,254.36 Q 423.72,257 420,257 L 417,257 Q 413.28,257 410.64,254.36 Q 408,251.72 408,248 L 408,86 Q 408,82.28 410.64,79.64 Q 413.28,77 417,77 L 420,77 Z" /><defs><clipPath id="clip_20"><polygon points="413 82,424 82,424 252,413 252" /></clipPath></defs><g clip-path="url(#clip_20)">	<text x="413" y="179" xml:space="preserve" style="font-size:22px;font-family:Berial;fill:#000000;" textLength="11" lengthAdjust="spacingAndGlyphs" >N</text></g>	<path style="fill:#C7E152;" d="M 451,77 Q 454.72,77 457.36,79.64 Q 460,82.28 460,86 L 460,248 Q 460,251.72 457.36,254.36 Q 454.72,257 451,257 L 448,257 Q 444.28,257 441.64,254.36 Q 439,251.72 439,248 L 439,86 Q 439,82.28 441.64,79.64 Q 444.28,77 448,77 L 451,77 Z" /><defs><clipPath id="clip_21"><polygon points="444 82,455 82,455 252,444 252" /></clipPath></defs><g clip-path="url(#clip_21)">	<text x="444" y="179" xml:space="preserve" style="font-size:22px;font-family:Berial;fill:#000000;" textLength="11" lengthAdjust="spacingAndGlyphs" >O</text></g>	<path style="fill:#C7E152;" d="M 482,77 Q 485.72,77 488.36,79.64 Q 491,82.28 491,86 L 491,248 Q 491,251.72 488.36,254.36 Q 485.72,257 482,257 L 479,257 Q 475.28,257 472.64,254.36 Q 470,251.72 470,248 L 470,86 Q 470,82.28 472.64,79.64 Q 475.28,77 479,77 L 482,77 Z" /><defs><clipPath id="clip_22"><polygon points="475 82,486 82,486 252,475 252" /></clipPath></defs><g clip-path="url(#clip_22)">	<text x="475" y="179" xml:space="preserve" style="font-size:22px;font-family:Berial;fill:#000000;" textLength="11" lengthAdjust="spacingAndGlyphs" >P</text></g>	<path style="fill:#C7E152;" d="M 513,77 Q 516.72,77 519.36,79.64 Q 522,82.28 522,86 L 522,248 Q 522,251.72 519.36,254.36 Q 516.72,257 513,257 L 510,257 Q 506.28,257 503.64,254.36 Q 501,251.72 501,248 L 501,86 Q 501,82.28 503.64,79.64 Q 506.28,77 510,77 L 513,77 Z" /><defs><clipPath id="clip_23"><polygon points="506 82,517 82,517 252,506 252" /></clipPath></defs><g clip-path="url(#clip_23)">	<text x="506" y="179" xml:space="preserve" style="font-size:22px;font-family:Berial;fill:#000000;" textLength="11" lengthAdjust="spacingAndGlyphs" >Q</text></g>	<path style="fill:#C7E152;" d="M 544,77 Q 547.72,77 550.36,79.64 Q 553,82.28 553,86 L 553,248 Q 553,251.72 550.36,254.36 Q 547.72,257 544,257 L 541,257 Q 537.28,257 534.64,254.36 Q 532,251.72 532,248 L 532,86 Q 532,82.28 534.64,79.64 Q 537.28,77 541,77 L 544,77 Z" /><defs><clipPath id="clip_24"><polygon points="537 82,548 82,548 252,537 252" /></clipPath></defs><g clip-path="url(#clip_24)">	<text x="537" y="179" xml:space="preserve" style="font-size:22px;font-family:Berial;fill:#000000;" textLength="11" lengthAdjust="spacingAndGlyphs" >R</text></g>	<path style="fill:#C7E152;" d="M 575,77 Q 578.72,77 581.36,79.64 Q 584,82.28 584,86 L 584,248 Q 584,251.72 581.36,254.36 Q 578.72,257 575,257 L 572,257 Q 568.28,257 565.64,254.36 Q 563,251.72 563,248 L 563,86 Q 563,82.28 565.64,79.64 Q 568.28,77 572,77 L 575,77 Z" /><defs><clipPath id="clip_25"><polygon points="568 82,579 82,579 252,568 252" /></clipPath></defs><g clip-path="url(#clip_25)">	<text x="568" y="179" xml:space="preserve" style="font-size:22px;font-family:Berial;fill:#000000;" textLength="11" lengthAdjust="spacingAndGlyphs" >S</text></g>	<path style="fill:#C7E152;" d="M 606,77 Q 609.72,77 612.36,79.64 Q 615,82.28 615,86 L 615,248 Q 615,251.72 612.36,254.36 Q 609.72,257 606,257 L 603,257 Q 599.28,257 596.64,254.36 Q 594,251.72 594,248 L 594,86 Q 594,82.28 596.64,79.64 Q 599.28,77 603,77 L 606,77 Z" /><defs><clipPath id="clip_26"><polygon points="599 82,610 82,610 252,599 252" /></clipPath></defs><g clip-path="url(#clip_26)">	<text x="599" y="179" xml:space="preserve" style="font-size:22px;font-family:Berial;fill:#000000;" textLength="11" lengthAdjust="spacingAndGlyphs" >T</text></g>	<path style="fill:#C7E152;" d="M 637,77 Q 640.72,77 643.36,79.64 Q 646,82.28 646,86 L 646,248 Q 646,251.72 643.36,254.36 Q 640.72,257 637,257 L 634,257 Q 630.28,257 627.64,254.36 Q 625,251.72 625,248 L 625,86 Q 625,82.28 627.64,79.64 Q 630.28,77 634,77 L 637,77 Z" /><defs><clipPath id="clip_27"><polygon points="630 82,641 82,641 252,630 252" /></clipPath></defs><g clip-path="url(#clip_27)">	<text x="630" y="179" xml:space="preserve" style="font-size:22px;font-family:Berial;fill:#000000;" textLength="11" lengthAdjust="spacingAndGlyphs" >U</text></g>	<path style="fill:#C7E152;" d="M 668,77 Q 671.72,77 674.36,79.64 Q 677,82.28 677,86 L 677,248 Q 677,251.72 674.36,254.36 Q 671.72,257 668,257 L 665,257 Q 661.28,257 658.64,254.36 Q 656,251.72 656,248 L 656,86 Q 656,82.28 658.64,79.64 Q 661.28,77 665,77 L 668,77 Z" /><defs><clipPath id="clip_28"><polygon points="661 82,672 82,672 252,661 252" /></clipPath></defs><g clip-path="url(#clip_28)">	<text x="661" y="179" xml:space="preserve" style="font-size:22px;font-family:Berial;fill:#000000;" textLength="11" lengthAdjust="spacingAndGlyphs" >V</text></g>	<path style="fill:#C7E152;" d="M 699,77 Q 702.72,77 705.36,79.64 Q 708,82.28 708,86 L 708,248 Q 708,251.72 705.36,254.36 Q 702.72,257 699,257 L 696,257 Q 692.28,257 689.64,254.36 Q 687,251.72 687,248 L 687,86 Q 687,82.28 689.64,79.64 Q 692.28,77 696,77 L 699,77 Z" /><defs><clipPath id="clip_29"><polygon points="692 82,703 82,703 252,692 252" /></clipPath></defs><g clip-path="url(#clip_29)">	<text x="692" y="179" xml:space="preserve" style="font-size:22px;font-family:Berial;fill:#000000;" textLength="11" lengthAdjust="spacingAndGlyphs" >W</text></g>	<path style="fill:#C7E152;" d="M 730,77 Q 733.72,77 736.36,79.64 Q 739,82.28 739,86 L 739,248 Q 739,251.72 736.36,254.36 Q 733.72,257 730,257 L 727,257 Q 723.28,257 720.64,254.36 Q 718,251.72 718,248 L 718,86 Q 718,82.28 720.64,79.64 Q 723.28,77 727,77 L 730,77 Z" /><defs><clipPath id="clip_30"><polygon points="723 82,734 82,734 252,723 252" /></clipPath></defs><g clip-path="url(#clip_30)">	<text x="723" y="179" xml:space="preserve" style="font-size:22px;font-family:Berial;fill:#000000;" textLength="11" lengthAdjust="spacingAndGlyphs" >X</text></g>	<path style="fill:#C7E152;" d="M 761,77 Q 764.72,77 767.36,79.64 Q 770,82.28 770,86 L 770,248 Q 770,251.72 767.36,254.36 Q 764.72,257 761,257 L 758,257 Q 754.28,257 751.64,254.36 Q 749,251.72 749,248 L 749,86 Q 749,82.28 751.64,79.64 Q 754.28,77 758,77 L 761,77 Z" /><defs><clipPath id="clip_31"><polygon points="754 82,765 82,765 252,754 252" /></clipPath></defs><g clip-path="url(#clip_31)">	<text x="754" y="179" xml:space="preserve" style="font-size:22px;font-family:Berial;fill:#000000;" textLength="11" lengthAdjust="spacingAndGlyphs" >Y</text></g>	<path style="fill:#C7E152;" d="M 792,77 Q 795.72,77 798.36,79.64 Q 801,82.28 801,86 L 801,248 Q 801,251.72 798.36,254.36 Q 795.72,257 792,257 L 789,257 Q 785.28,257 782.64,254.36 Q 780,251.72 780,248 L 780,86 Q 780,82.28 782.64,79.64 Q 785.28,77 789,77 L 792,77 Z" /><defs><clipPath id="clip_32"><polygon points="785 82,796 82,796 252,785 252" /></clipPath></defs><g clip-path="url(#clip_32)">	<text x="785" y="179" xml:space="preserve" style="font-size:22px;font-family:Berial;fill:#000000;" textLength="11" lengthAdjust="spacingAndGlyphs" >Z</text></g></g><defs><clipPath id="clip_33"><polygon points="0 262,480 262,480 290,0 290" /></clipPath></defs><g clip-path="url(#clip_33)">	<text x="130" y="288" xml:space="preserve" style="font-size:22px;font-family:Berial;fill:#303133;" textLength="220" lengthAdjust="spacingAndGlyphs" >Vertical scroll view</text></g><defs><clipPath id="clip_34"><polygon points="0 290,480 290,480 480,0 480" /></clipPath></defs><g clip-path="url(#clip_34)">	<path style="fill:#C7E152;" d="M 466,295 Q 469.72,295 472.36,297.64 Q 475,300.28 475,304 L 475,320 Q 475,323.72 472.36,326.36 Q 469.72,329 466,329 L 14,329 Q 10.28,329 7.64,326.36 Q 5,323.72 5,320 L 5,304 Q 5,300.28 7.64,297.64 Q 10.28,295 14,295 L 466,295 Z" /><defs><clipPath id="clip_35"><polygon points="10 300,470 300,470 324,10 324" /></clipPath></defs><g clip-path="url(#clip_35)">	<text x="235" y="324" xml:space="preserve" style="font-size:22px;font-family:Berial;fill:#000000;" textLength="11" lengthAdjust="spacingAndGlyphs" >A</text></g>	<path style="fill:#C7E152;" d="M 466,339 Q 469.72,339 472.36,341.64 Q 475,344.28 475,348 L 475,364 Q 475,367.72 472.36,370.36 Q 469.72,373 466,373 L 14,373 Q 10.28,373 7.64,370.36 Q 5,367.72 5,364 L 5,348 Q 5,344.28 7.64,341.64 Q 10.28,339 14,339 L 466,339 Z" /><defs><clipPath id="clip_36"><polygon points="10 344,470 344,470 368,10 368" /></clipPath></defs><g clip-path="url(#clip_36)">	<text x="235" y="368" xml:space="preserve" style="font-size:22px;font-family:Berial;fill:#000000;" textLength="11" lengthAdjust="spacingAndGlyphs" >B</text></g>	<path style="fill:#C7E152;" d="M 466,383 Q 469.72,383 472.36,385.64 Q 475,388.28 475,392 L 475,408 Q 475,411.72 472.36,414.36 Q 469.72,417 466,417 L 14,417 Q 10.28,417 7.64,414.36 Q 5,411.72 5,408 L 5,392 Q 5,388.28 7.64,385.64 Q 10.28,383 14,383 L 466,383 Z" /><defs><clipPath id="clip_37"><polygon points="10 388,470 388,470 412,10 412" /></clipPath></defs><g clip-path="url(#clip_37)">	<text x="235" y="412" xml:space="preserve" style="font-size:22px;font-family:Berial;fill:#000000;" textLength="11" lengthAdjust="spacingAndGlyphs" >C</text></g>	<path style="fill:#C7E152;" d="M 466,427 Q 469.72,427 472.36,429.64 Q 475,432.28 475,436 L 475,452 Q 475,455.72 472.36,458.36 Q 469.72,461 466,461 L 14,461 Q 10.28,461 7.64,458.36 Q 5,455.72 5,452 L 5,436 Q 5,432.28 7.64,429.64 Q 10.28,427 14,427 L 466,427 Z" /><defs><clipPath id="clip_38"><polygon points="10 432,470 432,470 456,10 456" /></clipPath></defs><g clip-path="url(#clip_38)">	<text x="235" y="456" xml:space="preserve" style="font-size:22px;font-family:Berial;fill:#000000;" textLength="11" lengthAdjust="spacingAndGlyphs" >D</text></g>	<path style="fill:#C7E152;" d="M 466,471 Q 469.72,471 472.36,473.64 Q 475,476.28 475,480 L 475,496 Q 475,499.72 472.36,502.36 Q 469.72,505 466,505 L 14,505 Q 10.28,505 7.64,502.36 Q 5,499.72 5,496 L 5,480 Q 5,476.28 7.64,473.64 Q 10.28,471 14,471 L 466,471 Z" /><defs><clipPath id="clip_39"><polygon points="10 476,470 476,470 500,10 500" /></clipPath></defs><g clip-path="url(#clip_39)">	<text x="235" y="500" xml:space="preserve" style="font-size:22px;font-family:Berial;fill:#000000;" textLength="11" lengthAdjust="spacingAndGlyphs" >E</text></g>	<path style="fill:#C7E152;" d="M 466,515 Q 469.72,515 472.36,517.64 Q 475,520.28 475,524 L 475,540 Q 475,543.72 472.36,546.36 Q 469.72,549 466,549 L 14,549 Q 10.28,549 7.64,546.36 Q 5,543.72 5,540 L 5,524 Q 5,520.28 7.64,517.64 Q 10.28,515 14,515 L 466,515 Z" /><defs><clipPath id="clip_40"><polygon points="10 520,470 520,470 544,10 544" /></clipPath></defs><g clip-path="url(#clip_40)">	<text x="235" y="544" xml:space="preserve" style="font-size:22px;font-family:Berial;fill:#000000;" textLength="11" lengthAdjust="spacingAndGlyphs" >F</text></g>	<path style="fill:#C7E152;" d="M 466,559 Q 469.72,559 472.36,561.64 Q 475,564.28 475,568 L 475,584 Q 475,587.72 472.36,590.36 Q 469.72,593 466,593 L 14,593 Q 10.28,593 7.64,590.36 Q 5,587.72 5,584 L 5,568 Q 5,564.28 7.64,561.64 Q 10.28,559 14,559 L 466,559 Z" /><defs><clipPath id="clip_41"><polygon points="10 564,470 564,470 588,10 588" /></clipPath></defs><g clip-path="url(#clip_41)">	<text x="235" y="588" xml:space="preserve" style="font-size:22px;font-family:Berial;fill:#000000;" textLength="11" lengthAdjust="spacingAndGlyphs" >G</text></g>	<path style="fill:#C7E152;" d="M 466,603 Q 469.72,603 472.36,605.64 Q 475,608.28 475,612 L 475,628 Q 475,631.72 472.36,634.36 Q 469.72,637 466,637 L 14,637 Q 10.28,637 7.64,634.36 Q 5,631.72 5,628 L 5,612 Q 5,608.28 7.64,605.64 Q 10.28,603 14,603 L 466,603 Z" /><defs><clipPath id="clip_42"><polygon points="10 608,470 608,470 632,10 632" /></clipPath></defs><g clip-path="url(#clip_42)">	<text x="235" y="632" xml:space="preserve" style="font-size:22px;font-family:Berial;fill:#000000;" textLength="11" lengthAdjust="spacingAndGlyphs" >H</text></g>	<path style="fill:#C7E152;" d="M 466,647 Q 469.72,647 472.36,649.64 Q 475,652.28 475,656 L 475,672 Q 475,675.72 472.36,678.36 Q 469.72,681 466,681 L 14,681 Q 10.28,681 7.64,678.36 Q 5,675.72 5,672 L 5,656 Q 5,652.28 7.64,649.64 Q 10.28,647 14,647 L 466,647 Z" /><defs><clipPath id="clip_43"><polygon points="10 652,470 652,470 676,10 676" /></clipPath></defs><g clip-path="url(#clip_43)">	<text x="235" y="676" xml:space="preserve" style="font-size:22px;font-family:Berial;fill:#000000;" textLength="11" lengthAdjust="spacingAndGlyphs" >I</text></g>	<path style="fill:#C7E152;" d="M 466,691 Q 469.72,691 472.36,693.64 Q 475,696.28 475,700 L 475,716 Q 475,719.72 472.36,722.36 Q 469.72,725 466,725 L 14,725 Q 10.28,725 7.64,722.36 Q 5,719.72 5,716 L 5,700 Q 5,696.28 7.64,693.64 Q 10.28,691 14,691 L 466,691 Z" /><defs><clipPath id="clip_44"><polygon points="10 696,470 696,470 720,10 720" /></clipPath></defs><g clip-path="url(#clip_44)">	<text x="235" y="720" xml:space="preserve" style="font-size:22px;font-family:Berial;fill:#000000;" textLength="11" lengthAdjust="spacingAndGlyphs" >J</text></g>	<path style="fill:#C7E152;" d="M 466,735 Q 469.72,735 472.36,737.64 Q 475,740.28 475,744 L 475,760 Q 475,763.72 472.36,766.36 Q 469.72,769 466,769 L 14,769 Q 10.28,769 7.64,766.36 Q 5,763.72 5,760 L 5,744 Q 5,740.28 7.64,737.64 Q 10.28,735 14,735 L 466,735 Z" /><defs><clipPath id="clip_45"><polygon points="10 740,470 740,470 764,10 764" /></clipPath></defs><g clip-path="url(#clip_45)">	<text x="235" y="764" xml:space="preserve" style="font-size:22px;font-family:Berial;fill:#000000;" textLength="11" lengthAdjust="spacingAndGlyphs" >K</text></g>	<path style="fill:#C7E152;" d="M 466,779 Q 469.72,779 472.36,781.64 Q 475,784.28 475,788 L 475,804 Q 475,807.72 472.36,810.36 Q 469.72,813 466,813 L 14,813 Q 10.28,813 7.64,810.36 Q 5,807.72 5,804 L 5,788 Q 5,784.28 7.64,781.64 Q 10.28,779 14,779 L 466,779 Z" /><defs><clipPath id="clip_46"><polygon points="10 784,470 784,470 808,10 808" /></clipPath></defs><g clip-path="url(#clip_46)">	<text x="235" y="808" xml:space="preserve" style="font-size:22px;font-family:Berial;fill:#000000;" textLength="11" lengthAdjust="spacingAndGlyphs" >L</text></g>	<path style="fill:#C7E152;" d="M 466,823 Q 469.72,823 472.36,825.64 Q 475,828.28 475,832 L 475,848 Q 475,851.72 472.36,854.36 Q 469.72,857 466,857 L 14,857 Q 10.28,857 7.64,854.36 Q 5,851.72 5,848 L 5,832 Q 5,828.28 7.64,825.64 Q 10.28,823 14,823 L 466,823 Z" /><defs><clipPath id="clip_47"><polygon points="10 828,470 828,470 852,10 852" /></clipPath></defs><g clip-path="url(#clip_47)">	<text x="235" y="852" xml:space="preserve" style="font-size:22px;font-family:Berial;fill:#000000;" textLength="11" lengthAdjust="spacingAndGlyphs" >M</text></g>	<path style="fill:#C7E152;" d="M 466,867 Q 469.72,867 472.36,869.64 Q 475,872.28 475,876 L 475,892 Q 475,895.72 472.36,898.36 Q 469.72,901 466,901 L 14,901 Q 10.28,901 7.64,898.36 Q 5,895.72 5,892 L 5,876 Q 5,872.28 7.64,869.64 Q 10.28,867 14,867 L 466,867 Z" /><defs><clipPath id="clip_48"><polygon points="10 872,470 872,470 896,10 896" /></clipPath></defs><g clip-path="url(#clip_48)">	<text x="235" y="896" xml:space="preserve" style="font-size:22px;font-family:Berial;fill:#000000;" textLength="11" lengthAdjust="spacingAndGlyphs" >N</text></g>	<path style="fill:#C7E152;" d="M 466,911 Q 469.72,911 472.36,913.64 Q 475,916.28 475,920 L 475,936 Q 475,939.72 472.36,942.36 Q 469.72,945 466,945 L 14,945 Q 10.28,945 7.64,942.36 Q 5,939.72 5,936 L 5,920 Q 5,916.28 7.64,913.64 Q 10.28,911 14,911 L 466,911 Z" /><defs><clipPath id="clip_49"><polygon points="10 916,470 916,470 940,10 940" /></clipPath></defs><g clip-path="url(#clip_49)">	<text x="235" y="940" xml:space="preserve" style="font-size:22px;font-family:Berial;fill:#000000;" textLength="11" lengthAdjust="spacingAndGlyphs" >O</text></g>	<path style="fill:#C7E152;" d="M 466,955 Q 469.72,955 472.36,957.64 Q 475,960.28 475,964 L 475,980 Q 475,983.72 472.36,986.36 Q 469.72,989 466,989 L 14,989 Q 10.28,989 7.64,986.36 Q 5,983.72 5,980 L 5,964 Q 5,960.28 7.64,957.64 Q 10.28,955 14,955 L 466,955 Z" /><defs><clipPath id="clip_50"><polygon points="10 960,470 960,470 984,10 984" /></clipPath></defs><g clip-path="url(#clip_50)">	<text x="235" y="984" xml:space="preserve" style="font-size:22px;font-family:Berial;fill:#000000;" textLength="11" lengthAdjust="spacingAndGlyphs" >P</text></g>	<path style="fill:#C7E152;" d="M 466,999 Q 469.72,999 472.36,1001.64 Q 475,1004.28 475,1008 L 475,1024 Q 475,1027.72 472.36,1030.36 Q 469.72,1033 466,1033 L 14,1033 Q 10.28,1033 7.64,1030.36 Q 5,1027.72 5,1024 L 5,1008 Q 5,1004.28 7.64,1001.64 Q 10.28,999 14,999 L 466,999 Z" /><defs><clipPath id="clip_51"><polygon points="10 1004,470 1004,470 1028,10 1028" /></clipPath></defs><g clip-path="url(#clip_51)">	<text x="235" y="1028" xml:space="preserve" style="font-size:22px;font-family:Berial;fill:#000000;" textLength="11" lengthAdjust="spacingAndGlyphs" >Q</text></g>	<path style="fill:#C7E152;" d="M 466,1043 Q 469.72,1043 472.36,1045.64 Q 475,1048.28 475,1052 L 475,1068 Q 475,1071.72 472.36,1074.36 Q 469.72,1077 466,1077 L 14,1077 Q 10.28,1077 7.64,1074.36 Q 5,1071.72 5,1068 L 5,1052 Q 5,1048.28 7.64,1045.64 Q 10.28,1043 14,1043 L 466,1043 Z" /><defs><clipPath id="clip_52"><polygon points="10 1048,470 1048,470 1072,10 1072" /></clipPath></defs><g clip-path="url(#clip_52)">	<text x="235" y="1072" xml:space="preserve" style="font-size:22px;font-family:Berial;fill:#000000;" textLength="11" lengthAdjust="spacingAndGlyphs" >R</text></g>	<path style="fill:#C7E152;" d="M 466,1087 Q 469.72,1087 472.36,1089.64 Q 475,1092.28 475,1096 L 475,1112 Q 475,1115.72 472.36,1118.36 Q 469.72,1121 466,1121 L 14,1121 Q 10.28,1121 7.64,1118.36 Q 5,1115.72 5,1112 L 5,1096 Q 5,1092.28 7.64,1089.64 Q 10.28,1087 14,1087 L 466,1087 Z" /><defs><clipPath id="clip_53"><polygon points="10 1092,470 1092,470 1116,10 1116" /></clipPath></defs><g clip-path="url(#clip_53)">	<text x="235" y="1116" xml:space="preserve" style="font-size:22px;font-family:Berial;fill:#000000;" textLength="11" lengthAdjust="spacingAndGlyphs" >S</text></g>	<path style="fill:#C7E152;" d="M 466,1131 Q 469.72,1131 472.36,1133.64 Q 475,1136.28 475,1140 L 475,1156 Q 475,1159.72 472.36,1162.36 Q 469.72,1165 466,1165 L 14,1165 Q 10.28,1165 7.64,1162.36 Q 5,1159.72 5,1156 L 5,1140 Q 5,1136.28 7.64,1133.64 Q 10.28,1131 14,1131 L 466,1131 Z" /><defs><clipPath id="clip_54"><polygon points="10 1136,470 1136,470 1160,10 1160" /></clipPath></defs><g clip-path="url(#clip_54)">	<text x="235" y="1160" xml:space="preserve" style="font-size:22px;font-family:Berial;fill:#000000;" textLength="11" lengthAdjust="spacingAndGlyphs" >T</text></g>	<path style="fill:#C7E152;" d="M 466,1175 Q 469.72,1175 472.36,1177.64 Q 475,1180.28 475,1184 L 475,1200 Q 475,1203.72 472.36,1206.36 Q 469.72,1209 466,1209 L 14,1209 Q 10.28,1209 7.64,1206.36 Q 5,1203.72 5,1200 L 5,1184 Q 5,1180.28 7.64,1177.64 Q 10.28,1175 14,1175 L 466,1175 Z" /><defs><clipPath id="clip_55"><polygon points="10 1180,470 1180,470 1204,10 1204" /></clipPath></defs><g clip-path="url(#clip_55)">	<text x="235" y="1204" xml:space="preserve" style="font-size:22px;font-family:Berial;fill:#000000;" textLength="11" lengthAdjust="spacingAndGlyphs" >U</text></g>	<path style="fill:#C7E152;" d="M 466,1219 Q 469.72,1219 472.36,1221.64 Q 475,1224.28 475,1228 L 475,1244 Q 475,1247.72 472.36,1250.36 Q 469.72,1253 466,1253 L 14,1253 Q 10.28,1253 7.64,1250.36 Q 5,1247.72 5,1244 L 5,1228 Q 5,1224.28 7.64,1221.64 Q 10.28,1219 14,1219 L 466,1219 Z" /><defs><clipPath id="clip_56"><polygon points="10 1224,470 1224,470 1248,10 1248" /></clipPath></defs><g clip-path="url(#clip_56)">	<text x="235" y="1248" xml:space="preserve" style="font-size:22px;font-family:Berial;fill:#000000;" textLength="11" lengthAdjust="spacingAndGlyphs" >V</text></g>	<path style="fill:#C7E152;" d="M 466,1263 Q 469.72,1263 472.36,1265.64 Q 475,1268.28 475,1272 L 475,1288 Q 475,1291.72 472.36,1294.36 Q 469.72,1297 466,1297 L 14,1297 Q 10.28,1297 7.64,1294.36 Q 5,1291.72 5,1288 L 5,1272 Q 5,1268.28 7.64,1265.64 Q 10.28,1263 14,1263 L 466,1263 Z" /><defs><clipPath id="clip_57"><polygon points="10 1268,470 1268,470 1292,10 1292" /></clipPath></defs><g clip-path="url(#clip_57)">	<text x="235" y="1292" xml:space="preserve" style="font-size:22px;font-family:Berial;fill:#000000;" textLength="11" lengthAdjust="spacingAndGlyphs" >W</text></g>	<path style="fill:#C7E152;" d="M 466,1307 Q 469.72,1307 472.36,1309.64 Q 475,1312.28 475,1316 L 475,1332 Q 475,1335.72 472.36,1338.36 Q 469.72,1341 466,1341 L 14,1341 Q 10.28,1341 7.64,1338.36 Q 5,1335.72 5,1332 L 5,1316 Q 5,1312.28 7.64,1309.64 Q 10.28,1307 14,1307 L 466,1307 Z" /><defs><clipPath id="clip_58"><polygon points="10 1312,470 1312,470 1336,10 1336" /></clipPath></defs><g clip-path="url(#clip_58)">	<text x="235" y="1336" xml:space="preserve" style="font-size:22px;font-family:Berial;fill:#000000;" textLength="11" lengthAdjust="spacingAndGlyphs" >X</text></g>	<path style="fill:#C7E152;" d="M 466,1351 Q 469.72,1351 472.36,1353.64 Q 475,1356.28 475,1360 L 475,1376 Q 475,1379.72 472.36,1382.36 Q 469.72,1385 466,1385 L 14,1385 Q 10.28,1385 7.64,1382.36 Q 5,1379.72 5,1376 L 5,1360 Q 5,1356.28 7.64,1353.64 Q 10.28,1351 14,1351 L 466,1351 Z" /><defs><clipPath id="clip_59"><polygon points="10 1356,470 1356,470 1380,10 1380" /></clipPath></defs><g clip-path="url(#clip_59)">	<text x="235" y="1380" xml:space="preserve" style="font-size:22px;font-family:Berial;fill:#000000;" textLength="11" lengthAdjust="spacingAndGlyphs" >Y</text></g>	<path style="fill:#C7E152;" d="M 466,1395 Q 469.72,1395 472.36,1397.64 Q 475,1400.28 475,1404 L 475,1420 Q 475,1423.72 472.36,1426.36 Q 469.72,1429 466,1429 L 14,1429 Q 10.28,1429 7.64,1426.36 Q 5,1423.72 5,1420 L 5,1404 Q 5,1400.28 7.64,1397.64 Q 10.28,1395 14,1395 L 466,1395 Z" /><defs><clipPath id="clip_60"><polygon points="10 1400,470 1400,470 1424,10 1424" /></clipPath></defs><g clip-path="url(#clip_60)">	<text x="235" y="1424" xml:space="preserve" style="font-size:22px;font-family:Berial;fill:#000000;" textLength="11" lengthAdjust="spacingAndGlyphs" >Z</text></g></g></g></svg>