<?xml version="1.0" encoding="UTF-8" standalone="no"?><svg xmlns="http://www.w3.org/2000/svg" version="1.1" viewBox="0 0 480 480" ><defs><clipPath id="clip_0"><polygon points="0 0,480 0,480 480,0 480" /></clipPath></defs><g clip-path="url(#clip_0)">	<path style="fill:#FFFFFF;" d="M 0,0 L 480,0 L 480,480 L 0,480 L 0,0 Z" /><defs><clipPath id="clip_1"><polygon points="0 44,480 44,480 480,0 480" /></clipPath></defs><g clip-path="url(#clip_1)"></g></g><defs><clipPath id="clip_2"><polygon points="0 0,480 0,480 480,0 480" /></clipPath></defs><g clip-path="url(#clip_2)">	<path style="fill:#FFFFFF;" d="M 0,0 L 480,0 L 480,480 L 0,480 L 0,0 Z" />	<path style="fill:#373A42;" d="M 0,0 L 480,0 L 480,44 L 0,44 L 0,0 Z" /><defs><clipPath id="clip_3"><polygon points="0 0,480 0,480 44,0 44" /></clipPath></defs><g clip-path="url(#clip_3)">	<text x="180" y="34" xml:space="preserve" style="font-size:22px;font-family:Berial;fill:#E8EAF0;" textLength="121" lengthAdjust="spacingAndGlyphs" >Pane sample</text></g><defs><clipPath id="clip_4"><polygon points="10 10,76 10,76 34,10 34" /></clipPath></defs><g clip-path="url(#clip_4)">	<text x="10" y="34" xml:space="preserve" style="font-size:22px;font-family:Berial;fill:#E8EAF0;" textLength="66" lengthAdjust="spacingAndGlyphs" >&lt; Back</text></g><defs><clipPath id="clip_5"><polygon points="0 44,480 44,480 480,0 480" /></clipPath></defs><g clip-path="url(#clip_5)">	<path style="fill:#FFFFFF;" d="M 116,54 Q 120.14,54 123.06,56.92 Q 126,59.86 126,64 L 126,122 Q 126,126.14 123.06,129.06 Q 120.14,132 116,132 L 60,132 Q 55.86,132 52.92,129.06 Q 50,126.14 50,122 L 50,64 Q 50,59.86 52.92,56.92 Q 55.86,54 60,54 L 116,54 Z" />	<path style="fill:#C7E152;" d="M 116,53 Q 120.55,53 123.77,56.22 Q 127,59.45 127,64 L 127,122 Q 127,126.55 123.77,129.77 Q 120.55,133 116,133 L 60,133 Q 55.45,133 52.22,129.77 Q 49,126.55 49,122 L 49,64 Q 49,59.45 52.22,56.22 Q 55.45,53 60,53 L 116,53 M 60,54 Q 55.86,54 52.92,56.92 Q 50,59.86 50,64 L 50,122 Q 50,126.14 52.92,129.06 Q 55.86,132 60,132 L 116,132 Q 120.14,132 123.06,129.06 Q 126,126.14 126,122 L 126,64 Q 126,59.86 123.06,56.92 Q 120.14,54 116,54 L 60,54 Z" /><defs><clipPath id="clip_6"><polygon points="50 54,126 54,126 88,50 88" /></clipPath></defs><g clip-path="url(#clip_6)">	<text x="55" y="83" xml:space="preserve" style="font-size:22px;font-family:Berial;fill:#303133;" textLength="66" lengthAdjust="spacingAndGlyphs" >Pane 1</text></g>	<path style="fill:#C7E152;" d="M 112,93 Q 115.72,93 118.36,95.64 Q 121,98.28 121,102 L 121,118 Q 121,121.72 118.36,124.36 Q 115.72,127 112,127 L 64,127 Q 60.28,127 57.64,124.36 Q 55,121.72 55,118 L 55,102 Q 55,98.28 57.64,95.64 Q 60.28,93 64,93 L 112,93 Z" />	<path style="fill:#C7E152;" d="M 111.50,89 Q 117.08,89 121.03,92.95 Q 125,96.92 125,102.50 L 125,117.50 Q 125,123.08 121.03,127.03 Q 117.08,131 111.50,131 L 64.50,131 Q 58.92,131 54.95,127.03 Q 51,123.08 51,117.50 L 51,102.50 Q 51,96.92 54.95,92.95 Q 58.92,89 64.50,89 L 111.50,89 M 64.50,91 Q 59.75,91 56.38,94.38 Q 53,97.75 53,102.50 L 53,117.50 Q 53,122.25 56.38,125.63 Q 59.75,129 64.50,129 L 111.50,129 Q 116.25,129 119.63,125.63 Q 123,122.25 123,117.50 L 123,102.50 Q 123,97.75 119.63,94.38 Q 116.25,91 111.50,91 L 64.50,91 Z" /><defs><clipPath id="clip_7"><polygon points="60 98,116 98,116 122,60 122" /></clipPath></defs><g clip-path="url(#clip_7)">	<text x="77" y="122" xml:space="preserve" style="font-size:22px;font-family:Berial;fill:#000000;" textLength="22" lengthAdjust="spacingAndGlyphs" >Ok</text></g>	<path style="fill:#FFFFFF;" d="M 200,244 L 276,244 L 276,322 L 200,322 L 200,244 Z" />	<path style="fill:#C7E152;" d="M 199,243 L 277,243 L 277,323 L 199,323 L 199,243 M 200,244 L 200,322 L 276,322 L 276,244 L 200,244 Z" /><defs><clipPath id="clip_8"><polygon points="200 244,276 244,276 278,200 278" /></clipPath></defs><g clip-path="url(#clip_8)">	<text x="205" y="273" xml:space="preserve" style="font-size:22px;font-family:Berial;fill:#303133;" textLength="66" lengthAdjust="spacingAndGlyphs" >Pane 2</text></g>	<path style="fill:#C7E152;" d="M 262,283 Q 265.72,283 268.36,285.64 Q 271,288.28 271,292 L 271,308 Q 271,311.72 268.36,314.36 Q 265.72,317 262,317 L 214,317 Q 210.28,317 207.64,314.36 Q 205,311.72 205,308 L 205,292 Q 205,288.28 207.64,285.64 Q 210.28,283 214,283 L 262,283 Z" /><defs><clipPath id="clip_9"><polygon points="210 288,266 288,266 312,210 312" /></clipPath></defs><g clip-path="url(#clip_9)">	<text x="227" y="312" xml:space="preserve" style="font-size:22px;font-family:Berial;fill:#000000;" textLength="22" lengthAdjust="spacingAndGlyphs" >Ok</text></g>	<path style="fill:#FFFFFF;" d="M 421,434 Q 423.06,434 424.53,435.47 Q 426,436.94 426,439 L 426,507 Q 426,509.06 424.53,510.53 Q 423.06,512 421,512 L 355,512 Q 352.94,512 351.47,510.53 Q 350,509.06 350,507 L 350,439 Q 350,436.94 351.47,435.47 Q 352.94,434 355,434 L 421,434 Z" />	<path style="fill:#C7E152;" d="M 421,433 Q 423.48,433 425.23,434.75 Q 427,436.52 427,439 L 427,507 Q 427,509.48 425.23,511.23 Q 423.48,513 421,513 L 355,513 Q 352.52,513 350.75,511.23 Q 349,509.48 349,507 L 349,439 Q 349,436.52 350.75,434.75 Q 352.52,433 355,433 L 421,433 M 355,434 Q 352.94,434 351.47,435.47 Q 350,436.94 350,439 L 350,507 Q 350,509.06 351.47,510.53 Q 352.94,512 355,512 L 421,512 Q 423.06,512 424.53,510.53 Q 426,509.06 426,507 L 426,439 Q 426,436.94 424.53,435.47 Q 423.06,434 421,434 L 355,434 Z" /><defs><clipPath id="clip_10"><polygon points="350 434,426 434,426 468,350 468" /></clipPath></defs><g clip-path="url(#clip_10)">	<text x="355" y="463" xml:space="preserve" style="font-size:22px;font-family:Berial;fill:#303133;" textLength="66" lengthAdjust="spacingAndGlyphs" >Pane 3</text></g>	<path style="fill:#C7E152;" d="M 412,473 Q 415.72,473 418.36,475.64 Q 421,478.28 421,482 L 421,498 Q 421,501.72 418.36,504.36 Q 415.72,507 412,507 L 364,507 Q 360.28,507 357.64,504.36 Q 355,501.72 355,498 L 355,482 Q 355,478.28 357.64,475.64 Q 360.28,473 364,473 L 412,473 Z" /><defs><clipPath id="clip_11"><polygon points="360 478,416 478,416 502,360 502" /></clipPath></defs><g clip-path="url(#clip_11)">	<text x="377" y="502" xml:space="preserve" style="font-size:22px;font-family:Berial;fill:#000000;" textLength="22" lengthAdjust="spacingAndGlyphs" >Ok</text></g></g></g></svg>